<svg width="214" height="144" viewBox="0 0 214 144" fill="none" xmlns="http://www.w3.org/2000/svg">
<g clip-path="url(#clip0_566_10745)">
<path d="M213.756 0.242188H0.246094V143.466H213.756V0.242188Z" stroke="#231815" stroke-miterlimit="10"/>
<path d="M208.014 4.47656H5.98438V114.469H208.014V4.47656Z" fill="#040000"/>
<path d="M208.014 119.188H5.98438V139.237H208.014V119.188Z" fill="#040000"/>
<path d="M29.8156 18.6406H20.5977V34.2116H29.8156V18.6406Z" fill="white"/>
<path d="M41.5734 18.6406H32.3555V34.2116H41.5734V18.6406Z" fill="white"/>
<path d="M29.8156 42.6641H20.5977V100.631H29.8156V42.6641Z" fill="white"/>
<path d="M41.5734 42.6641H32.3555V100.631H41.5734V42.6641Z" fill="white"/>
<path d="M56.8937 100.562C50.7713 100.306 47.6954 98.7906 47.6758 96.0139V47.3191C47.6954 44.5817 50.7664 43.0707 56.879 42.7812L56.9036 42.8107V100.557H56.8937V100.562Z" fill="white"/>
<path d="M108.004 42.7734C114.117 43.0334 117.183 44.5493 117.202 47.3211V60.4244H108.004L108.014 60.4342V42.7783H108.004V42.7734Z" fill="white"/>
<path d="M108.004 69.5938H117.202V96.0114C117.183 98.7832 114.117 100.294 108.004 100.559H108.014V69.5938H108.004Z" fill="white"/>
<path d="M105.424 69.5984V100.564L59.457 100.593V43.848L59.4619 42.7344H105.409H105.424V60.4344L105.409 60.4246H96.0885V50.1912H68.6505V93.1462H96.0885V76.9326H80.5715V69.5984H105.409H105.424Z" fill="white"/>
<path d="M132.593 42.7698V100.555H132.588C126.471 100.305 123.4 98.7889 123.375 96.0172V47.3224C123.395 44.5506 126.466 43.0347 132.588 42.7747H132.593V42.7698ZM183.27 61.5786V42.7698H183.255C189.377 43.0298 192.448 44.5457 192.473 47.3175V61.608H183.26L183.275 61.5835L183.27 61.5786ZM183.27 100.555V81.0104H183.255H192.468V96.0123C192.443 98.784 189.372 100.3 183.25 100.56H183.265L183.27 100.555ZM180.709 100.599H135.134V100.57L135.139 42.7109V42.7257H180.704H180.719V61.5933L180.704 61.6031H171.496V50.1824H144.347V93.1375H171.496V81.0055H180.704L180.719 81.0202V100.565L180.709 100.594V100.599Z" fill="white"/>
<path d="M48.3594 34.2366V27.0938H49.8017V34.2366H48.3594Z" fill="white"/>
<path d="M55.8756 34.2387H54.5069V31.5944C54.5069 31.0352 54.4775 30.6721 54.4186 30.5103C54.3597 30.3484 54.2665 30.2208 54.1341 30.1276C54.0016 30.0393 53.8446 29.9902 53.6582 29.9902C53.4178 29.9902 53.2069 30.054 53.0155 30.1865C52.8242 30.314 52.6967 30.4906 52.628 30.7016C52.5593 30.9174 52.525 31.3148 52.525 31.8937V34.2387H51.1562V29.0631H52.4268V29.8234C52.8782 29.2397 53.4472 28.9453 54.1341 28.9453C54.4382 28.9453 54.7129 28.9993 54.9631 29.1072C55.2133 29.2151 55.4047 29.3525 55.5322 29.5242C55.6598 29.691 55.7481 29.8823 55.802 30.0982C55.8511 30.314 55.8805 30.6182 55.8805 31.0205V34.2387H55.8756Z" fill="white"/>
<path d="M56.7773 32.762L58.151 32.5511C58.2098 32.816 58.3276 33.022 58.5091 33.1594C58.6857 33.2967 58.9359 33.3654 59.2597 33.3654C59.6129 33.3654 59.8827 33.3016 60.0593 33.1692C60.1771 33.076 60.2408 32.9582 60.2408 32.8013C60.2408 32.6982 60.2114 32.6099 60.1427 32.5413C60.074 32.4775 59.922 32.4186 59.6865 32.3597C58.5827 32.1144 57.8811 31.8937 57.5868 31.6925C57.1796 31.4129 56.9736 31.0254 56.9736 30.5299C56.9736 30.0835 57.1502 29.7057 57.5034 29.4016C57.8566 29.0974 58.4061 28.9453 59.1517 28.9453C59.8974 28.9453 60.3831 29.0581 60.7314 29.2936C61.0748 29.5242 61.3152 29.8627 61.4427 30.314L60.1525 30.5495C60.0986 30.3484 59.9906 30.1963 59.8386 30.0884C59.6865 29.9804 59.4657 29.9265 59.1763 29.9265C58.8132 29.9265 58.5532 29.9755 58.4012 30.0785C58.2981 30.1521 58.2442 30.2404 58.2442 30.3582C58.2442 30.4563 58.2883 30.5397 58.3815 30.6084C58.5042 30.7016 58.931 30.8291 59.6619 30.9959C60.3929 31.1627 60.8982 31.3639 61.1876 31.6042C61.4722 31.8495 61.6144 32.188 61.6144 32.6246C61.6144 33.1005 61.4182 33.5077 61.0208 33.8511C60.6235 34.1896 60.0397 34.3613 59.2597 34.3613C58.5532 34.3613 57.9989 34.219 57.5868 33.9345C57.1796 33.65 56.9098 33.2624 56.7823 32.7718L56.7773 32.762Z" fill="white"/>
<path d="M65.1797 29.0613V30.1553H64.2428V32.2403C64.2428 32.6622 64.2526 32.9075 64.2673 32.9761C64.282 33.0448 64.3261 33.1037 64.3899 33.1478C64.4537 33.192 64.5322 33.2165 64.6205 33.2165C64.748 33.2165 64.9296 33.1724 65.1699 33.0841L65.2877 34.1486C64.9688 34.286 64.6107 34.3547 64.2084 34.3547C63.9631 34.3547 63.7424 34.3154 63.5412 34.232C63.345 34.1486 63.2027 34.0407 63.1095 33.9131C63.0163 33.7807 62.9525 33.6041 62.9182 33.3784C62.8887 33.2165 62.874 32.8976 62.874 32.412V30.1553H62.2461V29.0613H62.874V28.0311L64.2428 27.2266V29.0613H65.1797Z" fill="white"/>
<path d="M66.1367 28.3594V27.0938H67.5054V28.3594H66.1367ZM66.1367 34.2366V29.061H67.5054V34.2366H66.1367Z" fill="white"/>
<path d="M71.2784 29.0613V30.1553H70.3414V32.2403C70.3414 32.6622 70.3512 32.9075 70.3659 32.9761C70.3807 33.0448 70.4248 33.1037 70.4886 33.1478C70.5524 33.192 70.6308 33.2165 70.7192 33.2165C70.8467 33.2165 71.0282 33.1724 71.2686 33.0841L71.3863 34.1486C71.0675 34.286 70.7093 34.3547 70.3071 34.3547C70.0618 34.3547 69.8361 34.3154 69.6399 34.232C69.4436 34.1486 69.2965 34.0407 69.2033 33.9131C69.1101 33.7807 69.0463 33.6041 69.0119 33.3784C68.9825 33.2165 68.9678 32.8976 68.9678 32.412V30.1553H68.3398V29.0613H68.9678V28.0311L70.3365 27.2266V29.0613H71.2735H71.2784Z" fill="white"/>
<path d="M75.6372 34.243V33.4679C75.4508 33.7475 75.2006 33.9634 74.8964 34.1204C74.5873 34.2823 74.2636 34.3607 73.9251 34.3607C73.5866 34.3607 73.2628 34.2823 72.9881 34.1302C72.7084 33.9781 72.5122 33.7622 72.3895 33.4875C72.2669 33.2128 72.2031 32.8301 72.2031 32.3445V29.0674H73.5718V31.4467C73.5718 32.1728 73.5964 32.6192 73.6503 32.7811C73.6994 32.943 73.7926 33.0754 73.9251 33.1686C74.0575 33.2668 74.2292 33.3109 74.4304 33.3109C74.6658 33.3109 74.8719 33.2471 75.0583 33.1196C75.2447 32.992 75.3723 32.835 75.4409 32.6437C75.5096 32.4524 75.544 31.9863 75.544 31.2456V29.0625H76.9127V34.2381H75.6421L75.6372 34.243Z" fill="white"/>
<path d="M80.6964 29.0613V30.1553H79.7594V32.2403C79.7594 32.6622 79.7692 32.9075 79.7839 32.9761C79.8035 33.0448 79.8428 33.1037 79.9065 33.1478C79.9703 33.192 80.0488 33.2165 80.1371 33.2165C80.2647 33.2165 80.4462 33.1724 80.6866 33.0841L80.8043 34.1486C80.4854 34.286 80.1273 34.3547 79.725 34.3547C79.4797 34.3547 79.259 34.3154 79.0578 34.232C78.8567 34.1486 78.7144 34.0407 78.6212 33.9131C78.528 33.7807 78.4643 33.6041 78.4299 33.3784C78.4005 33.2165 78.3858 32.8976 78.3858 32.412V30.1553H77.7578V29.0613H78.3858V28.0311L79.7545 27.2266V29.0613H80.6915H80.6964Z" fill="white"/>
<path d="M84.6487 32.5874L86.0125 32.8131C85.8359 33.3135 85.5612 33.6961 85.1834 33.9561C84.8057 34.2161 84.3298 34.3486 83.7608 34.3486C82.863 34.3486 82.1958 34.0542 81.7641 33.4655C81.4256 32.9946 81.2539 32.401 81.2539 31.6798C81.2539 30.8213 81.4747 30.1492 81.926 29.6685C82.3773 29.1828 82.9415 28.9375 83.6283 28.9375C84.3985 28.9375 85.0019 29.1926 85.4483 29.6979C85.8899 30.2032 86.1057 30.9832 86.0861 32.033H82.657C82.6668 32.4402 82.7747 32.7591 82.9905 32.9848C83.2064 33.2104 83.4615 33.3233 83.7804 33.3233C83.9962 33.3233 84.1728 33.2644 84.32 33.1467C84.4672 33.0289 84.5751 32.8425 84.6536 32.5825L84.6487 32.5874ZM84.7272 31.1942C84.7174 30.8017 84.6144 30.4975 84.4181 30.2915C84.2219 30.0855 83.9864 29.9824 83.7068 29.9824C83.4075 29.9824 83.1623 30.0904 82.966 30.3062C82.7698 30.5221 82.6766 30.8164 82.6815 31.1893H84.7272V31.1942Z" fill="white"/>
<path d="M89.6622 31.5719C89.6622 31.1157 89.775 30.6741 89.9957 30.2522C90.2214 29.8254 90.5354 29.5017 90.9475 29.276C91.3596 29.0503 91.8158 28.9375 92.3211 28.9375C93.106 28.9375 93.7438 29.1926 94.2442 29.6979C94.7445 30.2081 94.9947 30.8508 94.9947 31.6259C94.9947 32.401 94.7396 33.0584 94.2343 33.5735C93.729 34.0886 93.0913 34.3437 92.326 34.3437C91.8501 34.3437 91.3988 34.2357 90.9671 34.0248C90.5354 33.8089 90.2067 33.495 89.9859 33.0829C89.7652 32.6708 89.6523 32.1655 89.6523 31.5719H89.6622ZM91.0652 31.6455C91.0652 32.1606 91.1879 32.5531 91.4282 32.8278C91.6686 33.1025 91.9728 33.235 92.3309 33.235C92.689 33.235 92.9883 33.0976 93.2287 32.8278C93.469 32.5531 93.5917 32.1606 93.5917 31.6357C93.5917 31.1108 93.469 30.7379 93.2287 30.4632C92.9834 30.1885 92.689 30.056 92.3309 30.056C91.9728 30.056 91.6735 30.1934 91.4282 30.4632C91.1829 30.7379 91.0652 31.1304 91.0652 31.6455Z" fill="white"/>
<path d="M95.4688 29.0615H96.2291V28.674C96.2291 28.2373 96.2782 27.9136 96.3714 27.7026C96.4646 27.4868 96.6314 27.3151 96.8816 27.1777C97.1318 27.0452 97.4458 26.9766 97.8235 26.9766C98.2013 26.9766 98.5937 27.0354 98.9666 27.1532L98.7802 28.1049C98.5643 28.0558 98.3534 28.0264 98.1522 28.0264C97.9511 28.0264 97.8137 28.0706 97.7254 28.1638C97.642 28.257 97.5979 28.4336 97.5979 28.6985V29.0664H98.6232V30.1457H97.5979V34.2469H96.2291V30.1457H95.4688V29.0664V29.0615Z" fill="white"/>
<path d="M105.497 31.6145V30.4028H108.607V33.2481C108.308 33.5376 107.867 33.7976 107.293 34.0184C106.719 34.2391 106.14 34.3519 105.551 34.3519C104.805 34.3519 104.153 34.195 103.599 33.881C103.044 33.567 102.627 33.1206 102.348 32.5368C102.068 31.953 101.926 31.3202 101.926 30.6334C101.926 29.8877 102.083 29.2303 102.392 28.6514C102.706 28.0726 103.162 27.631 103.761 27.322C104.217 27.0865 104.786 26.9688 105.468 26.9688C106.356 26.9688 107.047 27.1552 107.548 27.528C108.048 27.9008 108.367 28.411 108.509 29.0684L107.077 29.3382C106.979 28.985 106.787 28.7103 106.508 28.5092C106.228 28.308 105.885 28.205 105.468 28.205C104.835 28.205 104.335 28.4061 103.962 28.8035C103.589 29.2058 103.402 29.7945 103.402 30.5843C103.402 31.433 103.594 32.0708 103.967 32.4927C104.344 32.9146 104.835 33.1304 105.448 33.1304C105.747 33.1304 106.052 33.0715 106.356 32.9538C106.66 32.8361 106.92 32.6938 107.136 32.5221V31.6194H105.482L105.497 31.6145Z" fill="white"/>
<path d="M109.934 34.2366V27.0938H111.302V34.2366H109.934Z" fill="white"/>
<path d="M112.388 31.5719C112.388 31.1157 112.501 30.6741 112.721 30.2522C112.947 29.8254 113.261 29.5017 113.673 29.276C114.08 29.0503 114.541 28.9375 115.047 28.9375C115.827 28.9375 116.469 29.1926 116.97 29.6979C117.47 30.2081 117.72 30.8508 117.72 31.6259C117.72 32.401 117.465 33.0584 116.96 33.5735C116.455 34.0886 115.817 34.3437 115.052 34.3437C114.576 34.3437 114.124 34.2357 113.698 34.0248C113.266 33.8089 112.937 33.495 112.716 33.0829C112.491 32.6708 112.383 32.1655 112.383 31.5719H112.388ZM113.791 31.6455C113.791 32.1606 113.913 32.5531 114.154 32.8278C114.399 33.1025 114.698 33.235 115.056 33.235C115.415 33.235 115.714 33.0976 115.954 32.8278C116.195 32.558 116.317 32.1606 116.317 31.6357C116.317 31.1108 116.195 30.7379 115.954 30.4632C115.714 30.1885 115.415 30.056 115.056 30.056C114.698 30.056 114.399 30.1934 114.154 30.4632C113.909 30.7379 113.791 31.1304 113.791 31.6455Z" fill="white"/>
<path d="M118.742 34.2366V27.0938H120.111V29.6644C120.533 29.1836 121.033 28.9432 121.612 28.9432C122.24 28.9432 122.765 29.1738 123.177 29.63C123.589 30.0863 123.795 30.7387 123.795 31.5973C123.795 32.4558 123.584 33.1622 123.162 33.6381C122.74 34.1139 122.235 34.3543 121.632 34.3543C121.337 34.3543 121.043 34.2807 120.758 34.1335C120.469 33.9864 120.224 33.7656 120.018 33.4762V34.2366H118.747H118.742ZM120.101 31.5335C120.101 32.0682 120.184 32.4656 120.356 32.7256C120.592 33.0886 120.911 33.2701 121.298 33.2701C121.602 33.2701 121.857 33.1426 122.068 32.8826C122.284 32.6226 122.387 32.2154 122.387 31.661C122.387 31.0674 122.279 30.6406 122.063 30.3806C121.848 30.1206 121.578 29.9882 121.244 29.9882C120.911 29.9882 120.646 30.1157 120.425 30.3708C120.209 30.6259 120.101 31.0135 120.101 31.5335Z" fill="white"/>
<path d="M125.916 30.6378L124.675 30.417C124.817 29.9167 125.057 29.5438 125.396 29.3034C125.734 29.0631 126.244 28.9453 126.916 28.9453C127.53 28.9453 127.981 29.0189 128.285 29.1612C128.584 29.3083 128.795 29.4899 128.918 29.7106C129.041 29.9314 129.1 30.3435 129.1 30.9371L129.08 32.5363C129.08 32.9926 129.104 33.3262 129.144 33.542C129.188 33.7579 129.271 33.9885 129.389 34.2387H128.035C128.001 34.1454 127.956 34.013 127.903 33.8315C127.883 33.7481 127.863 33.6941 127.853 33.6696C127.618 33.8952 127.368 34.0669 127.103 34.1798C126.838 34.2926 126.553 34.3515 126.249 34.3515C125.715 34.3515 125.298 34.2043 124.988 33.9149C124.679 33.6254 124.527 33.2575 124.527 32.816C124.527 32.5265 124.601 32.2616 124.738 32.036C124.881 31.8054 125.077 31.6288 125.327 31.511C125.577 31.3884 125.94 31.2805 126.416 31.1922C127.059 31.0744 127.5 30.9616 127.746 30.8537V30.7163C127.746 30.4514 127.682 30.265 127.549 30.1521C127.417 30.0393 127.172 29.9853 126.813 29.9853C126.568 29.9853 126.377 30.0344 126.244 30.1276C126.107 30.2257 125.994 30.3925 125.911 30.6329L125.916 30.6378ZM127.75 31.7465C127.574 31.8054 127.299 31.8741 126.916 31.9575C126.534 32.036 126.289 32.1194 126.171 32.1929C125.989 32.3205 125.901 32.4824 125.901 32.6786C125.901 32.8748 125.975 33.0367 126.117 33.1741C126.259 33.3164 126.441 33.385 126.661 33.385C126.912 33.385 127.147 33.3066 127.368 33.1398C127.535 33.0171 127.643 32.865 127.696 32.6884C127.731 32.5707 127.75 32.3499 127.75 32.0212V31.7465Z" fill="white"/>
<path d="M130.449 34.2366V27.0938H131.818V34.2366H130.449Z" fill="white"/>
<path d="M140.569 31.6076L141.968 32.0491C141.752 32.8292 141.394 33.4129 140.898 33.7907C140.403 34.1733 139.765 34.3598 139 34.3598C138.053 34.3598 137.273 34.036 136.66 33.3884C136.051 32.7409 135.742 31.8529 135.742 30.7295C135.742 29.5423 136.051 28.62 136.664 27.9626C137.278 27.3053 138.087 26.9766 139.088 26.9766C139.961 26.9766 140.668 27.2317 141.217 27.7517C141.541 28.0558 141.786 28.4924 141.948 29.0664L140.52 29.4098C140.437 29.037 140.26 28.7476 139.991 28.5317C139.726 28.3158 139.397 28.2079 139.014 28.2079C138.485 28.2079 138.058 28.3992 137.724 28.777C137.395 29.1596 137.229 29.7729 137.229 30.6265C137.229 31.5291 137.391 32.1718 137.714 32.5544C138.038 32.9371 138.46 33.1284 138.98 33.1284C139.363 33.1284 139.691 33.0058 139.966 32.7605C140.246 32.5152 140.442 32.1325 140.56 31.6076H140.569Z" fill="white"/>
<path d="M146.196 32.5874L147.559 32.8131C147.383 33.3135 147.108 33.6961 146.73 33.9561C146.353 34.2161 145.877 34.3486 145.308 34.3486C144.41 34.3486 143.743 34.0542 143.311 33.4655C142.972 32.9946 142.801 32.401 142.801 31.6798C142.801 30.8213 143.026 30.1492 143.473 29.6685C143.919 29.1828 144.488 28.9375 145.175 28.9375C145.945 28.9375 146.549 29.1926 146.995 29.6979C147.442 30.2032 147.653 30.9832 147.633 32.033H144.204C144.214 32.4402 144.326 32.7591 144.537 32.9848C144.748 33.2104 145.013 33.3233 145.327 33.3233C145.543 33.3233 145.72 33.2644 145.867 33.1467C146.014 33.0289 146.122 32.8425 146.196 32.5825V32.5874ZM146.274 31.1942C146.264 30.8017 146.161 30.4975 145.97 30.2915C145.774 30.0855 145.538 29.9824 145.259 29.9824C144.959 29.9824 144.714 30.0904 144.518 30.3062C144.322 30.5221 144.228 30.8164 144.233 31.1893H146.279L146.274 31.1942Z" fill="white"/>
<path d="M150.06 34.2387H148.691V29.0631H149.962V29.7989C150.178 29.4506 150.374 29.2249 150.546 29.1121C150.717 29.0042 150.919 28.9453 151.134 28.9453C151.448 28.9453 151.748 29.0336 152.037 29.2004L151.61 30.3925C151.38 30.2453 151.169 30.1669 150.968 30.1669C150.767 30.1669 150.614 30.2208 150.482 30.3238C150.35 30.4318 150.247 30.6231 150.168 30.8978C150.09 31.1725 150.055 31.7514 150.055 32.6345V34.2337L150.06 34.2387Z" fill="white"/>
<path d="M154.997 29.0613V30.1553H154.06V32.2403C154.06 32.6622 154.07 32.9075 154.085 32.9761C154.104 33.0448 154.144 33.1037 154.207 33.1478C154.271 33.192 154.35 33.2165 154.438 33.2165C154.565 33.2165 154.747 33.1724 154.987 33.0841L155.105 34.1486C154.786 34.286 154.428 34.3547 154.026 34.3547C153.781 34.3547 153.56 34.3154 153.359 34.232C153.157 34.1486 153.015 34.0407 152.922 33.9131C152.829 33.7807 152.765 33.6041 152.731 33.3784C152.701 33.2165 152.687 32.8976 152.687 32.412V30.1553H152.059V29.0613H152.687V28.0311L154.055 27.2266V29.0613H154.992H154.997Z" fill="white"/>
<path d="M155.957 28.3594V27.0938H157.326V28.3594H155.957ZM155.957 34.2366V29.061H157.326V34.2366H155.957Z" fill="white"/>
<path d="M158.126 29.0615H158.886V28.674C158.886 28.2373 158.931 27.9136 159.024 27.7026C159.117 27.4868 159.289 27.3151 159.534 27.1777C159.784 27.0452 160.098 26.9766 160.476 26.9766C160.854 26.9766 161.246 27.0354 161.619 27.1532L161.432 28.1049C161.217 28.0558 161.006 28.0264 160.805 28.0264C160.603 28.0264 160.466 28.0706 160.378 28.1638C160.294 28.257 160.25 28.4336 160.25 28.6985V29.0664H161.276V30.1457H160.25V34.2469H158.881V30.1457H158.121V29.0664L158.126 29.0615Z" fill="white"/>
<path d="M162.051 28.3594V27.0938H163.419V28.3594H162.051ZM162.051 34.2366V29.061H163.419V34.2366H162.051Z" fill="white"/>
<path d="M169.334 30.5937L167.98 30.8389C167.936 30.5691 167.828 30.368 167.666 30.2306C167.504 30.0933 167.298 30.0246 167.038 30.0246C166.695 30.0246 166.425 30.1423 166.219 30.3778C166.018 30.6133 165.915 31.0057 165.915 31.5601C165.915 32.1733 166.018 32.605 166.224 32.8601C166.43 33.1152 166.71 33.2428 167.058 33.2428C167.318 33.2428 167.534 33.1692 167.696 33.022C167.862 32.8748 167.98 32.6197 168.049 32.2616L169.398 32.4873C169.256 33.1054 168.991 33.5715 168.593 33.8854C168.196 34.1994 167.666 34.3564 166.999 34.3564C166.243 34.3564 165.64 34.116 165.189 33.6401C164.737 33.1643 164.512 32.502 164.512 31.6582C164.512 30.8144 164.737 30.1374 165.189 29.6616C165.64 29.1857 166.253 28.9453 167.023 28.9453C167.651 28.9453 168.157 29.0827 168.53 29.3525C168.902 29.6223 169.167 30.0393 169.334 30.5937Z" fill="white"/>
<path d="M171.395 30.6378L170.154 30.417C170.296 29.9167 170.537 29.5438 170.88 29.3034C171.219 29.0631 171.729 28.9453 172.401 28.9453C173.014 28.9453 173.465 29.0189 173.77 29.1612C174.069 29.3083 174.28 29.4899 174.402 29.7106C174.525 29.9314 174.584 30.3435 174.584 30.9371L174.564 32.5363C174.564 32.9926 174.589 33.3262 174.628 33.542C174.672 33.7579 174.756 33.9885 174.873 34.2387H173.519C173.485 34.1454 173.441 34.013 173.387 33.8315C173.367 33.7481 173.348 33.6941 173.338 33.6696C173.102 33.8952 172.852 34.0669 172.587 34.1798C172.322 34.2926 172.038 34.3515 171.734 34.3515C171.199 34.3515 170.782 34.2043 170.473 33.9149C170.164 33.6254 170.012 33.2575 170.012 32.816C170.012 32.5265 170.085 32.2616 170.223 32.036C170.365 31.8054 170.561 31.6288 170.811 31.511C171.062 31.3884 171.425 31.2805 171.9 31.1922C172.543 31.0744 172.985 30.9616 173.23 30.8537V30.7163C173.23 30.4514 173.166 30.265 173.034 30.1521C172.901 30.0393 172.656 29.9853 172.298 29.9853C172.053 29.9853 171.861 30.0344 171.729 30.1276C171.591 30.2257 171.479 30.3925 171.395 30.6329V30.6378ZM173.225 31.7465C173.048 31.8054 172.774 31.8741 172.391 31.9575C172.008 32.036 171.763 32.1194 171.645 32.1929C171.464 32.3205 171.376 32.4824 171.376 32.6786C171.376 32.8748 171.449 33.0367 171.591 33.1741C171.734 33.3164 171.915 33.385 172.136 33.385C172.386 33.385 172.622 33.3066 172.842 33.1398C173.009 33.0171 173.117 32.865 173.171 32.6884C173.205 32.5707 173.225 32.3499 173.225 32.0212V31.7465Z" fill="white"/>
<path d="M178.294 29.0613V30.1553H177.357V32.2403C177.357 32.6622 177.367 32.9075 177.382 32.9761C177.396 33.0448 177.44 33.1037 177.504 33.1478C177.568 33.192 177.646 33.2165 177.735 33.2165C177.862 33.2165 178.044 33.1724 178.284 33.0841L178.402 34.1486C178.083 34.286 177.725 34.3547 177.323 34.3547C177.077 34.3547 176.852 34.3154 176.655 34.232C176.459 34.1486 176.312 34.0407 176.219 33.9131C176.126 33.7807 176.062 33.6041 176.028 33.3784C175.998 33.2165 175.983 32.8976 175.983 32.412V30.1553H175.355V29.0613H175.983V28.0311L177.352 27.2266V29.0613H178.289H178.294Z" fill="white"/>
<path d="M179.25 28.3594V27.0938H180.619V28.3594H179.25ZM179.25 34.2366V29.061H180.619V34.2366H179.25Z" fill="white"/>
<path d="M181.705 31.5719C181.705 31.1157 181.818 30.6741 182.039 30.2522C182.264 29.8254 182.578 29.5017 182.99 29.276C183.403 29.0503 183.859 28.9375 184.364 28.9375C185.149 28.9375 185.787 29.1926 186.287 29.6979C186.788 30.2081 187.038 30.8508 187.038 31.6259C187.038 32.401 186.783 33.0584 186.277 33.5735C185.772 34.0886 185.134 34.3437 184.369 34.3437C183.893 34.3437 183.442 34.2357 183.01 34.0248C182.578 33.8089 182.25 33.495 182.029 33.0829C181.808 32.6708 181.695 32.1655 181.695 31.5719H181.705ZM183.113 31.6455C183.113 32.1606 183.236 32.5531 183.476 32.8278C183.716 33.1025 184.021 33.235 184.379 33.235C184.737 33.235 185.036 33.0976 185.277 32.8278C185.517 32.5531 185.64 32.1606 185.64 31.6357C185.64 31.1108 185.517 30.7379 185.277 30.4632C185.031 30.1885 184.737 30.056 184.379 30.056C184.021 30.056 183.721 30.1934 183.476 30.4632C183.231 30.7379 183.113 31.1304 183.113 31.6455Z" fill="white"/>
<path d="M192.826 34.2387H191.457V31.5944C191.457 31.0352 191.428 30.6721 191.369 30.5103C191.31 30.3484 191.217 30.2208 191.084 30.1276C190.952 30.0393 190.795 29.9902 190.608 29.9902C190.373 29.9902 190.157 30.054 189.966 30.1865C189.779 30.314 189.647 30.4906 189.578 30.7016C189.51 30.9174 189.47 31.3148 189.47 31.8937V34.2387H188.102V29.0631H189.372V29.8234C189.823 29.2397 190.393 28.9453 191.079 28.9453C191.379 28.9453 191.658 28.9993 191.908 29.1072C192.159 29.2151 192.345 29.3525 192.478 29.5242C192.605 29.691 192.693 29.8823 192.747 30.0982C192.796 30.314 192.821 30.6182 192.821 31.0205V34.2387H192.826Z" fill="white"/>
<path d="M18.75 135.064V123.82H20.2365V135.064H18.75Z" fill="white"/>
<path d="M23.3575 131.45L24.7605 131.327C24.8292 131.891 24.9813 132.352 25.2266 132.711C25.4719 133.074 25.8447 133.363 26.3598 133.584C26.87 133.804 27.444 133.917 28.0866 133.917C28.6557 133.917 29.1561 133.834 29.5878 133.662C30.0244 133.495 30.3482 133.26 30.5592 132.966C30.7701 132.671 30.878 132.352 30.878 132.004C30.878 131.656 30.775 131.342 30.5739 131.082C30.3678 130.817 30.0293 130.596 29.5633 130.42C29.2591 130.302 28.5919 130.12 27.5617 129.87C26.5266 129.62 25.8055 129.389 25.3885 129.169C24.8537 128.889 24.4515 128.536 24.1865 128.124C23.9216 127.707 23.7892 127.241 23.7892 126.725C23.7892 126.156 23.9511 125.627 24.2699 125.131C24.5937 124.636 25.0647 124.263 25.6828 124.008C26.3009 123.753 26.9877 123.625 27.7481 123.625C28.5821 123.625 29.318 123.757 29.9557 124.027C30.5935 124.297 31.0841 124.69 31.4226 125.214C31.766 125.734 31.9475 126.328 31.9769 126.985L30.5493 127.093C30.4709 126.382 30.2108 125.847 29.7693 125.484C29.3278 125.121 28.6753 124.94 27.807 124.94C26.9387 124.94 26.2519 125.107 25.8398 125.435C25.4277 125.764 25.2217 126.161 25.2217 126.627C25.2217 127.03 25.3688 127.363 25.6583 127.623C25.9428 127.883 26.6934 128.153 27.9002 128.423C29.1119 128.698 29.941 128.938 30.3875 129.139C31.0399 129.443 31.5256 129.821 31.8396 130.287C32.1535 130.748 32.3056 131.283 32.3056 131.886C32.3056 132.49 32.1339 133.049 31.7905 133.579C31.4471 134.109 30.9565 134.521 30.3139 134.815C29.6712 135.109 28.9501 135.257 28.1455 135.257C27.13 135.257 26.2764 135.109 25.5847 134.81C24.8979 134.516 24.3582 134.069 23.9658 133.471C23.5733 132.877 23.3673 132.2 23.3477 131.45H23.3575Z" fill="white"/>
<path d="M34.8955 129.588C34.8955 127.723 35.3959 126.261 36.3967 125.202C37.3975 124.147 38.6926 123.617 40.2772 123.617C41.3172 123.617 42.2493 123.862 43.0833 124.363C43.9173 124.858 44.5501 125.55 44.9916 126.438C45.4331 127.326 45.649 128.332 45.649 129.455C45.649 130.578 45.4184 131.614 44.9573 132.516C44.4961 133.414 43.8437 134.096 42.9999 134.562C42.1561 135.023 41.2436 135.259 40.2674 135.259C39.2077 135.259 38.2609 135.004 37.4269 134.493C36.5929 133.983 35.9601 133.286 35.5333 132.399C35.1016 131.516 34.8906 130.578 34.8906 129.592L34.8955 129.588ZM36.431 129.612C36.431 130.966 36.7941 132.036 37.525 132.816C38.256 133.596 39.1685 133.983 40.2674 133.983C41.3663 133.983 42.3082 133.591 43.0342 132.801C43.7554 132.016 44.1184 130.897 44.1184 129.45C44.1184 128.533 43.9614 127.733 43.6524 127.051C43.3433 126.369 42.892 125.84 42.2934 125.462C41.6998 125.084 41.0278 124.898 40.287 124.898C39.2322 124.898 38.3247 125.261 37.5692 125.982C36.8088 126.708 36.431 127.915 36.431 129.607V129.612Z" fill="white"/>
<path d="M60.6404 133.737V135.067H53.2082C53.1984 134.733 53.2523 134.414 53.3701 134.105C53.5614 133.6 53.8606 133.099 54.2776 132.609C54.6946 132.118 55.298 131.549 56.083 130.906C57.3045 129.906 58.1287 129.111 58.5604 128.522C58.9921 127.938 59.203 127.384 59.203 126.864C59.203 126.344 59.0068 125.853 58.6143 125.481C58.2219 125.103 57.7117 124.916 57.0837 124.916C56.4165 124.916 55.8867 125.118 55.4894 125.515C55.092 125.912 54.8859 126.467 54.881 127.173L53.4633 127.026C53.5614 125.966 53.9244 125.162 54.5622 124.607C55.195 124.053 56.0486 123.773 57.1181 123.773C58.1875 123.773 59.051 124.073 59.6789 124.671C60.3068 125.27 60.6208 126.01 60.6208 126.898C60.6208 127.35 60.5276 127.791 60.3461 128.228C60.1597 128.665 59.8555 129.121 59.4287 129.602C59.0019 130.082 58.2906 130.745 57.2996 131.579C56.4705 132.275 55.9407 132.746 55.7052 132.996C55.4697 133.247 55.2735 133.492 55.1214 133.742H60.6355L60.6404 133.737Z" fill="white"/>
<path d="M70.3826 133.737V135.067H62.9504C62.9405 134.733 62.9945 134.414 63.1122 134.105C63.3036 133.6 63.6028 133.099 64.0198 132.609C64.4368 132.118 65.0402 131.549 65.8251 130.906C67.0467 129.906 67.8708 129.111 68.3026 128.522C68.7343 127.938 68.9452 127.384 68.9452 126.864C68.9452 126.344 68.749 125.853 68.3565 125.481C67.9641 125.103 67.4539 124.916 66.8259 124.916C66.1587 124.916 65.6289 125.118 65.2315 125.515C64.8342 125.912 64.6281 126.467 64.6232 127.173L63.2054 127.026C63.3036 125.966 63.6666 125.162 64.3043 124.607C64.9372 124.053 65.7908 123.773 66.8603 123.773C67.9297 123.773 68.7931 124.073 69.4211 124.671C70.049 125.27 70.363 126.01 70.363 126.898C70.363 127.35 70.2698 127.791 70.0883 128.228C69.9018 128.665 69.5977 129.121 69.1709 129.602C68.7441 130.082 68.0327 130.745 67.0418 131.579C66.2127 132.275 65.6829 132.746 65.4474 132.996C65.2119 133.247 65.0157 133.492 64.8636 133.742H70.3777L70.3826 133.737Z" fill="white"/>
<path d="M72.8711 129.521C72.8711 128.192 73.0085 127.122 73.2832 126.313C73.5579 125.503 73.9651 124.875 74.5047 124.439C75.0444 123.997 75.7214 123.781 76.5406 123.781C77.144 123.781 77.6739 123.904 78.1301 124.144C78.5863 124.39 78.9592 124.738 79.2584 125.194C79.5528 125.65 79.7882 126.21 79.955 126.867C80.1218 127.524 80.2101 128.412 80.2101 129.526C80.2101 130.846 80.0728 131.91 79.803 132.72C79.5331 133.529 79.126 134.157 78.5863 134.598C78.0467 135.04 77.3648 135.261 76.5406 135.261C75.4564 135.261 74.6028 134.873 73.9847 134.093C73.2439 133.156 72.8711 131.635 72.8711 129.521ZM74.2889 129.521C74.2889 131.366 74.5047 132.597 74.9364 133.205C75.3681 133.818 75.9029 134.123 76.5357 134.123C77.1686 134.123 77.7033 133.818 78.135 133.2C78.5667 132.587 78.7826 131.361 78.7826 129.516C78.7826 127.672 78.5667 126.435 78.135 125.827C77.7033 125.219 77.1637 124.914 76.521 124.914C75.8783 124.914 75.3829 125.184 75.0002 125.719C74.5243 126.406 74.2889 127.672 74.2889 129.516V129.521Z" fill="white"/>
<path d="M82.6133 129.521C82.6133 128.192 82.7506 127.122 83.0254 126.313C83.3001 125.503 83.7073 124.875 84.2469 124.439C84.7865 123.997 85.4635 123.781 86.2828 123.781C86.8862 123.781 87.416 123.904 87.8723 124.144C88.3285 124.39 88.7014 124.738 89.0006 125.194C89.295 125.65 89.5304 126.21 89.6972 126.867C89.864 127.524 89.9523 128.412 89.9523 129.526C89.9523 130.846 89.815 131.91 89.5452 132.72C89.2753 133.529 88.8682 134.157 88.3285 134.598C87.7889 135.04 87.107 135.261 86.2828 135.261C85.1986 135.261 84.345 134.873 83.7269 134.093C82.9861 133.156 82.6133 131.635 82.6133 129.521ZM84.0311 129.521C84.0311 131.366 84.2469 132.597 84.6786 133.205C85.1103 133.818 85.6451 134.123 86.2779 134.123C86.9107 134.123 87.4455 133.818 87.8772 133.2C88.3089 132.587 88.5247 131.361 88.5247 129.516C88.5247 127.672 88.3089 126.435 87.8772 125.827C87.4455 125.219 86.9058 124.914 86.2632 124.914C85.6205 124.914 85.125 125.184 84.7424 125.719C84.2665 126.406 84.0311 127.672 84.0311 129.516V129.521Z" fill="white"/>
<path d="M92.3555 129.521C92.3555 128.192 92.4928 127.122 92.7676 126.313C93.0423 125.503 93.4495 124.875 93.9891 124.439C94.5287 123.997 95.2057 123.781 96.025 123.781C96.6284 123.781 97.1582 123.904 97.6145 124.144C98.0707 124.39 98.4435 124.738 98.7428 125.194C99.0371 125.65 99.2726 126.21 99.4394 126.867C99.6062 127.524 99.6945 128.412 99.6945 129.526C99.6945 130.846 99.5572 131.91 99.2873 132.72C99.0175 133.529 98.6103 134.157 98.0707 134.598C97.5311 135.04 96.8492 135.261 96.025 135.261C94.9408 135.261 94.0872 134.873 93.4691 134.093C92.7283 133.156 92.3555 131.635 92.3555 129.521ZM93.7732 129.521C93.7732 131.366 93.9891 132.597 94.4208 133.205C94.8525 133.818 95.3872 134.123 96.0201 134.123C96.6529 134.123 97.1877 133.818 97.6194 133.2C98.0511 132.587 98.2669 131.361 98.2669 129.516C98.2669 127.672 98.0511 126.435 97.6194 125.827C97.1877 125.219 96.648 124.914 96.0054 124.914C95.3627 124.914 94.8672 125.184 94.4846 125.719C94.0087 126.406 93.7732 127.672 93.7732 129.516V129.521Z" fill="white"/>
<path d="M116.054 131.121L117.541 131.499C117.227 132.72 116.667 133.652 115.858 134.295C115.049 134.938 114.058 135.257 112.885 135.257C111.713 135.257 110.687 135.011 109.927 134.516C109.167 134.02 108.588 133.309 108.195 132.372C107.798 131.435 107.602 130.429 107.602 129.355C107.602 128.182 107.827 127.162 108.274 126.289C108.72 125.416 109.358 124.753 110.182 124.302C111.006 123.851 111.919 123.625 112.91 123.625C114.033 123.625 114.98 123.91 115.75 124.484C116.515 125.057 117.05 125.862 117.354 126.902L115.887 127.245C115.627 126.426 115.25 125.833 114.754 125.46C114.259 125.087 113.636 124.901 112.88 124.901C112.017 124.901 111.296 125.107 110.712 125.524C110.133 125.936 109.721 126.495 109.49 127.191C109.255 127.888 109.137 128.609 109.137 129.35C109.137 130.307 109.274 131.141 109.554 131.857C109.834 132.568 110.265 133.103 110.854 133.456C111.443 133.809 112.081 133.986 112.762 133.986C113.596 133.986 114.303 133.746 114.882 133.265C115.461 132.784 115.853 132.073 116.054 131.126V131.121Z" fill="white"/>
<path d="M120.414 135.064V123.82H128.548V125.145H121.905V128.589H128.126V129.908H121.905V133.735H128.808V135.064H120.414Z" fill="white"/>
<path d="M131.887 135.064V123.82H136.871C137.872 123.82 138.637 123.923 139.157 124.124C139.677 124.326 140.094 124.684 140.408 125.194C140.722 125.704 140.874 126.268 140.874 126.891C140.874 127.691 140.614 128.363 140.099 128.908C139.584 129.457 138.784 129.8 137.705 129.953C138.097 130.144 138.397 130.33 138.603 130.512C139.039 130.909 139.451 131.41 139.839 132.008L141.796 135.069H139.922L138.436 132.729C137.999 132.052 137.641 131.537 137.362 131.179C137.082 130.821 136.827 130.571 136.606 130.428C136.385 130.286 136.16 130.183 135.929 130.129C135.762 130.095 135.483 130.075 135.1 130.075H133.373V135.069H131.887V135.064ZM133.378 128.78H136.577C137.259 128.78 137.788 128.711 138.171 128.569C138.554 128.427 138.848 128.201 139.044 127.892C139.245 127.583 139.344 127.245 139.344 126.882C139.344 126.352 139.152 125.91 138.765 125.572C138.377 125.228 137.769 125.057 136.935 125.057H133.373V128.775L133.378 128.78Z" fill="white"/>
<path d="M146.798 135.064V125.145H143.094V123.82H152.008V125.145H148.289V135.064H146.803H146.798Z" fill="white"/>
<path d="M154.789 135.064V123.82H156.276V135.064H154.789Z" fill="white"/>
<path d="M159.984 135.064V123.82H167.569V125.145H161.471V128.628H166.749V129.953H161.471V135.059H159.984V135.064Z" fill="white"/>
<path d="M170.762 135.064V123.82H172.248V135.064H170.762Z" fill="white"/>
<path d="M175.91 135.064V123.82H184.044V125.145H177.402V128.589H183.622V129.908H177.402V133.735H184.304V135.064H175.91Z" fill="white"/>
<path d="M187.363 135.064V123.82H191.239C192.112 123.82 192.779 123.874 193.24 123.982C193.883 124.129 194.433 124.399 194.889 124.787C195.482 125.287 195.924 125.93 196.218 126.71C196.513 127.49 196.66 128.383 196.66 129.383C196.66 130.237 196.562 130.993 196.36 131.655C196.159 132.317 195.904 132.862 195.595 133.293C195.281 133.725 194.943 134.064 194.57 134.314C194.197 134.564 193.751 134.75 193.226 134.878C192.701 135.005 192.097 135.069 191.42 135.069H187.363V135.064ZM188.855 133.735H191.254C191.994 133.735 192.578 133.666 193 133.529C193.422 133.391 193.756 133.195 194.011 132.945C194.364 132.592 194.639 132.116 194.835 131.522C195.031 130.929 195.129 130.203 195.129 129.354C195.129 128.177 194.938 127.274 194.55 126.641C194.163 126.008 193.697 125.586 193.142 125.371C192.745 125.218 192.102 125.14 191.219 125.14H188.855V133.73V133.735Z" fill="white"/>
</g>
<defs>
<clipPath id="clip0_566_10745">
<rect width="214" height="143.715" fill="white"/>
</clipPath>
</defs>
</svg>
