<svg width="36" height="36" viewBox="0 0 36 36" fill="none" xmlns="http://www.w3.org/2000/svg">
<mask id="mask0_923_2980" style="mask-type:alpha" maskUnits="userSpaceOnUse" x="0" y="0" width="36" height="36">
<rect width="36" height="36" fill="#FBE1C8"/>
</mask>
<g mask="url(#mask0_923_2980)">
<path d="M12.375 26.625H23.625V24.375H12.375V26.625ZM12.375 20.625H23.625V18.375H12.375V20.625ZM9.46163 32.25C8.70387 32.25 8.0625 31.9875 7.5375 31.4625C7.0125 30.9375 6.75 30.2961 6.75 29.5384V6.46163C6.75 5.70387 7.0125 5.0625 7.5375 4.5375C8.0625 4.0125 8.70387 3.75 9.46163 3.75H21.375L29.25 11.625V29.5384C29.25 30.2961 28.9875 30.9375 28.4625 31.4625C27.9375 31.9875 27.2961 32.25 26.5384 32.25H9.46163ZM20.25 12.75V6H9.46163C9.34612 6 9.24038 6.04812 9.14438 6.14437C9.04813 6.24037 9 6.34612 9 6.46163V29.5384C9 29.6539 9.04813 29.7596 9.14438 29.8556C9.24038 29.9519 9.34612 30 9.46163 30H26.5384C26.6539 30 26.7596 29.9519 26.8556 29.8556C26.9519 29.7596 27 29.6539 27 29.5384V12.75H20.25Z" fill="#FBE1C8"/>
</g>
</svg>
