<svg width="164" height="60" viewBox="0 0 164 60" fill="none" xmlns="http://www.w3.org/2000/svg">
<path d="M155.127 22.1098H129.978V14.1924H153.584C154.436 14.1924 155.127 13.5272 155.127 12.7054V9.125H122.973V25.6967C122.973 26.5185 123.664 27.1837 124.516 27.1837H153.584C154.436 27.1837 155.127 26.5185 155.127 25.6967V22.1163V22.1098Z" fill="#FF5F00"/>
<path d="M121.531 31.6406V35.4819C121.531 36.3037 122.222 36.9689 123.074 36.9689H155.022C155.874 36.9689 156.565 36.3037 156.565 35.4819V31.6406H121.531Z" fill="#FF5F00"/>
<path d="M115.936 9.125H83.6523V12.7054C83.6523 13.5272 84.3432 14.1924 85.1955 14.1924H114.393C115.245 14.1924 115.936 13.5272 115.936 12.7054V9.125Z" fill="#FF5F00"/>
<path d="M116.262 22.109H110.057L110.406 15.5547H103.414L103.065 22.109H96.5888L96.2014 15.5547H89.183L89.5704 22.109H83.3203V25.6895C83.3203 26.5112 84.0112 27.1764 84.8635 27.1764H114.726C115.578 27.1764 116.269 26.5112 116.269 25.6895V22.109H116.262Z" fill="#FF5F00"/>
<path d="M83.8179 36.9845H96.2923V44.4258H100.211C101.916 44.4258 103.298 43.0889 103.298 41.4454V36.9845H115.772C116.624 36.9845 117.315 36.3193 117.315 35.4976V31.6562H82.2812V35.4976C82.2812 36.3193 82.9721 36.9845 83.8244 36.9845H83.8179Z" fill="#FF5F00"/>
<path d="M75.8708 16.0744V9.22656H69.201V26.0722L68.8717 25.9222C67.6966 25.2896 66.4117 24.8135 65.0623 24.5266V9.22656H58.2569V14.2809H51.3741V9.22656H44.6914V27.1092C44.6914 27.644 44.8012 28.0157 45.0078 28.1983C45.2338 28.394 45.6535 28.5113 46.1571 28.5113H62.4344C66.8249 28.5113 70.3826 32.2092 70.3826 36.8527C70.3826 41.4961 66.8249 45.2266 62.4344 45.2592C57.3013 45.2983 54.002 41.4113 54.3183 36.8527C54.3183 34.6744 55.2739 32.6853 56.5588 31.1918H49.8116C48.701 33.1287 48.0683 35.3527 48.0683 37.72C48.0683 45.1809 54.3312 51.2331 62.0599 51.2331C69.7886 51.2331 76.0516 45.1874 76.0516 37.72C76.0516 37.2048 76.0193 36.7027 75.9612 36.2005C75.9483 28.4331 75.8643 21.3961 75.8643 21.3961H78.9183C79.7706 21.3961 80.4615 20.7309 80.4615 19.9092V16.0744H75.8643H75.8708ZM58.2569 23.7961H51.3741V19.0483H58.2569V23.7961Z" fill="#FF5F00"/>
<path d="M38.7442 9.18492V12.3675C38.7442 13.1893 38.0533 13.8545 37.201 13.8545H15.0417L15.1966 17.5262H39.0735L38.9185 20.7088C38.9185 21.5306 38.2276 22.1958 37.3754 22.1958H26.8962V25.7371H40.9459V28.9262C40.9459 29.748 40.2551 30.4132 39.4028 30.4132H34.7475C36.1615 32.5262 36.988 35.0371 36.988 37.7371C36.988 45.198 30.725 51.2501 22.9963 51.2501C15.2676 51.2501 9.00465 45.2045 9.00465 37.7371C9.00465 36.2371 9.4308 34.4697 9.89568 33.1262H15.9391C15.5001 34.1697 14.9125 35.6567 14.9125 36.8762C14.9125 41.5197 18.1215 45.3545 23.3643 45.2827C27.7549 45.224 31.3125 41.5197 31.3125 36.8762C31.3125 34.274 30.1891 31.9588 28.4329 30.4132H7.35174C6.49946 30.4132 5.80859 29.748 5.80859 28.9262V25.7371H19.8842V22.1958H9.64387C9.04985 22.1958 8.60434 22.0784 8.35899 21.8632C8.13946 21.6675 8.01678 21.2827 8.01678 20.7545V9.17188H38.7313L38.7442 9.18492Z" fill="#FF5F00"/>
</svg>
