<svg width="24" height="24" viewBox="0 0 24 24" fill="none" xmlns="http://www.w3.org/2000/svg">
<mask id="mask0_490_1453" style="mask-type:alpha" maskUnits="userSpaceOnUse" x="0" y="0" width="24" height="24">
<rect width="24" height="24" fill="#FBE1C8"/>
</mask>
<g mask="url(#mask0_490_1453)">
<path d="M4.99725 21C4.14725 21 3.54309 20.6208 3.18475 19.8625C2.82642 19.1042 2.91392 18.4 3.44725 17.75L8.99725 11V5H7.99725C7.71392 5 7.47642 4.90417 7.28475 4.7125C7.09309 4.52083 6.99725 4.28333 6.99725 4C6.99725 3.71667 7.09309 3.47917 7.28475 3.2875C7.47642 3.09583 7.71392 3 7.99725 3H15.9973C16.2806 3 16.5181 3.09583 16.7098 3.2875C16.9014 3.47917 16.9973 3.71667 16.9973 4C16.9973 4.28333 16.9014 4.52083 16.7098 4.7125C16.5181 4.90417 16.2806 5 15.9973 5H14.9973V11L20.5473 17.75C21.0806 18.4 21.1681 19.1042 20.8098 19.8625C20.4514 20.6208 19.8473 21 18.9973 21H4.99725ZM6.99725 18H16.9973L13.5973 14H10.3973L6.99725 18Z" fill="#FBE1C8"/>
</g>
</svg>
