<svg width="166" height="166" viewBox="0 0 166 166" fill="none" xmlns="http://www.w3.org/2000/svg">
<g filter="url(#filter0_d_688_2271)">
<path d="M20 83C20 48.2061 48.2061 20 83 20H136C141.523 20 146 24.4772 146 30V83C146 117.794 117.794 146 83 146C48.2061 146 20 117.794 20 83Z" fill="#EF3900"/>
</g>
<path d="M68.8125 95.1562V96.9375H63.5625V99.2656H61.3438V96.9375H55.7031V95.1562H68.8125ZM57.1875 102.266V98.0781H59.4375V100.469H67.375V102.266H57.1875ZM57.3125 94.1406V88.7656H67.1406V94.1406H57.3125ZM59.5156 92.4062H64.9375V90.5H59.5156V92.4062ZM74.1719 89.0938C76.4531 89.0859 78.1719 90.5781 78.1875 92.6562C78.1719 94.7422 76.4531 96.2266 74.1719 96.2188C71.9141 96.2266 70.1562 94.7422 70.1562 92.6562C70.1562 90.5781 71.9141 89.0859 74.1719 89.0938ZM69.6094 97.8594C72.1328 97.8672 75.6406 97.8281 78.6719 97.4062L78.8438 99.0312C75.7031 99.6406 72.3438 99.6719 69.8594 99.6719L69.6094 97.8594ZM72.3906 92.6562C72.3906 93.7266 73.1719 94.2891 74.1719 94.2812C75.1953 94.2891 75.9844 93.7266 76 92.6562C75.9844 91.6094 75.2031 91.0312 74.1719 91.0312C73.1641 91.0312 72.3906 91.6094 72.3906 92.6562ZM79.4375 102.531V88.1562H81.6719V102.531H79.4375ZM94.75 88.1562V93.6719H96.7812V95.5312H94.75V102.5H92.5312V88.1562H94.75ZM83.2969 92.0312V90.25H86.4062V88.3906H88.6562V90.25H91.6875V92.0312H83.2969ZM83.8125 96.1719C83.7969 94.1484 85.3828 92.7109 87.5312 92.7188C89.625 92.7109 91.2266 94.1484 91.2344 96.1719C91.2266 98.1953 89.625 99.625 87.5312 99.625C85.3828 99.625 83.7969 98.1953 83.8125 96.1719ZM85.9688 96.1719C85.9531 97.2266 86.6094 97.8047 87.5312 97.7969C88.4219 97.8047 89.0703 97.2266 89.0781 96.1719C89.0703 95.1406 88.4219 94.5391 87.5312 94.5312C86.6094 94.5391 85.9531 95.1406 85.9688 96.1719ZM109.312 88.1562V102.5H107.031V88.1562H109.312ZM97.2031 98.3281C100.852 96.6094 102.383 94.4844 102.703 91.3906H98.0156V89.6406H105C104.992 94.0625 103.594 97.6641 98.375 100.109L97.2031 98.3281Z" fill="#F7E1CE"/>
<mask id="mask0_688_2271" style="mask-type:alpha" maskUnits="userSpaceOnUse" x="74" y="109" width="18" height="18">
<rect x="74" y="109" width="18" height="18" fill="#F7E1CE"/>
</mask>
<g mask="url(#mask0_688_2271)">
<path d="M90.3906 118.227L74.8967 118.227" stroke="#F7E1CE" stroke-width="2"/>
<path d="M83.9922 111.703C83.9922 111.703 83.9922 113.209 86.5532 115.844C88.8702 118.228 90.6507 118.228 90.6507 118.228C90.6507 118.228 88.9861 118.228 86.5532 120.612C84.1202 122.996 83.9922 124.753 83.9922 124.753" stroke="#F7E1CE" stroke-width="2"/>
</g>
<path d="M59.64 56.92C59.64 52 62.4 49.6 66.8 49.6C71.2 49.6 74.12 52.08 74.12 56.92V71.08C74.12 75.2 72.04 77.6 68.76 78.24V78.96C68.76 79.52 68.84 79.72 69.44 79.72H72.56V83.8H69.76C66.48 83.8 64.92 82.84 64.92 79.56V78.28C61.64 77.64 59.64 75.28 59.64 71.08V56.92ZM65.24 56.52V71.52C65.24 73.04 66.04 73.56 66.88 73.56C67.72 73.56 68.52 73.04 68.52 71.52V56.52C68.52 55 67.72 54.48 66.88 54.48C66.04 54.48 65.24 55 65.24 56.52ZM83.3408 78.5273C81.1533 78.5273 79.4443 77.8828 78.2139 76.5938C76.9834 75.3047 76.3682 73.874 76.3682 72.3018C76.3682 71.0029 76.6904 69.8896 77.335 68.9619C77.9795 68.0342 79.0342 67.1162 80.499 66.208L80.9531 65.9297C80.3281 65.2266 79.8447 64.5088 79.5029 63.7764C79.1611 63.0439 78.9902 62.2822 78.9902 61.4912C78.9902 59.9189 79.5176 58.6934 80.5723 57.8145C81.627 56.9258 82.9941 56.4814 84.6738 56.4814C86.207 56.4814 87.4717 56.9355 88.4678 57.8438C89.4736 58.7422 89.9766 59.8945 89.9766 61.3008C89.9766 62.5703 89.6738 63.6006 89.0684 64.3916C88.4727 65.1826 87.5938 65.915 86.4316 66.5889L89.4932 70.3682C89.8447 69.8604 90.1133 69.3086 90.2988 68.7129C90.4941 68.1172 90.5967 67.4873 90.6064 66.8232H94.3125C94.2539 68.1318 93.9414 69.4551 93.375 70.793C93.0625 71.5449 92.5547 72.375 91.8516 73.2832L95.7773 78H90.709L89.2148 76.1689C88.4922 76.8428 87.8184 77.3408 87.1934 77.6631C86.0801 78.2393 84.7959 78.5273 83.3408 78.5273ZM83.1064 68.5957C82.0615 69.2891 81.3682 69.8994 81.0264 70.4268C80.6943 70.9541 80.5283 71.5352 80.5283 72.1699C80.5283 72.8828 80.8164 73.5371 81.3926 74.1328C81.9785 74.7285 82.7256 75.0264 83.6338 75.0264C84.3174 75.0264 84.9619 74.8701 85.5674 74.5576C86.1826 74.2354 86.6807 73.8789 87.0615 73.4883L83.1064 68.5957ZM82.8281 61.3447C82.8281 61.7354 82.9648 62.1455 83.2383 62.5752C83.4141 62.8584 83.7949 63.3613 84.3809 64.084C84.9668 63.6738 85.3867 63.3271 85.6406 63.0439C86.1289 62.5166 86.373 61.9453 86.373 61.3301C86.373 60.8809 86.2266 60.4805 85.9336 60.1289C85.6406 59.7773 85.1963 59.6016 84.6006 59.6016C84.2295 59.6016 83.8828 59.7041 83.5605 59.9092C83.0723 60.2119 82.8281 60.6904 82.8281 61.3447ZM99.7419 49.96H108.502L111.502 77.96H105.902L105.262 71.04H102.822L102.222 77.96H96.6219L99.7419 49.96ZM103.262 66.16H104.822L104.262 59.48H103.862L103.262 66.16Z" fill="#F7E1CE"/>
<defs>
<filter id="filter0_d_688_2271" x="0" y="0" width="166" height="166" filterUnits="userSpaceOnUse" color-interpolation-filters="sRGB">
<feFlood flood-opacity="0" result="BackgroundImageFix"/>
<feColorMatrix in="SourceAlpha" type="matrix" values="0 0 0 0 0 0 0 0 0 0 0 0 0 0 0 0 0 0 127 0" result="hardAlpha"/>
<feOffset/>
<feGaussianBlur stdDeviation="10"/>
<feComposite in2="hardAlpha" operator="out"/>
<feColorMatrix type="matrix" values="0 0 0 0 0 0 0 0 0 0 0 0 0 0 0 0 0 0 0.12 0"/>
<feBlend mode="normal" in2="BackgroundImageFix" result="effect1_dropShadow_688_2271"/>
<feBlend mode="normal" in="SourceGraphic" in2="effect1_dropShadow_688_2271" result="shape"/>
</filter>
</defs>
</svg>
