<svg width="48" height="48" viewBox="0 0 48 48" fill="none" xmlns="http://www.w3.org/2000/svg">
<rect width="48" height="48" rx="6" fill="#371909"/>
<path d="M42.422 18.4231V15H38.6963V23.4201L38.5138 23.3455C37.8576 23.0273 37.1395 22.7922 36.3832 22.6489V15H32.5809V17.5257H28.7346V15H25V23.939C25 24.2056 25.0618 24.3919 25.1766 24.4837C25.3031 24.584 25.5386 24.6414 25.8211 24.6414H34.9176V24.6442C37.372 24.6442 39.3614 26.4905 39.3614 28.8127C39.3614 31.1349 37.372 32.9984 34.9176 33.0156C32.0483 33.0356 30.4532 31.0919 30.6298 28.8127C30.6298 27.7233 31.1624 26.7285 31.8835 25.9831H28.1107C27.4926 26.9492 27.1366 28.0616 27.1366 29.2456C27.1366 32.9754 30.3885 36 34.7087 36C39.0288 36 42.5309 32.9754 42.5309 29.2456C42.5309 28.9876 42.5132 28.7353 42.4809 28.4859C42.475 24.6041 42.4279 21.0864 42.4279 21.0864H44.1377C44.6145 21.0864 45 20.7539 45 20.341V18.4259H42.4279L42.422 18.4231ZM32.575 22.2819H28.7287V19.9081H32.575V22.2819Z" fill="#FF5F00"/>
<path d="M21.7438 15V16.5885C21.7438 16.9978 21.3511 17.3327 20.8654 17.3327H8.24659L8.33353 19.1645H21.9297L21.8428 20.753C21.8428 21.1623 21.45 21.4972 20.9643 21.4972H14.9982V23.2661H23V24.8574C23 25.2667 22.6073 25.6016 22.1216 25.6016H19.4713C20.2778 26.6549 20.7455 27.9085 20.7455 29.2566C20.7455 32.9804 17.1778 36 12.7766 36C8.37551 36 5.06266 32.9804 5.06266 29.2566C5.06266 28.5096 5.3055 27.628 5.56933 26.9554H9.01109C8.75926 27.4764 8.42647 28.2177 8.42647 28.8273C8.42647 31.1457 9.99745 33.0605 12.9865 33.0233C15.4869 32.9918 17.5136 31.1457 17.5136 28.8273C17.5136 27.5279 16.875 26.3715 15.8736 25.6045H3.87843C3.39274 25.6045 3 25.2725 3 24.8603V23.2689H11.0138V21.5001H5.18258C4.8438 21.5001 4.59197 21.4428 4.44806 21.3341C4.32214 21.2367 4.25319 21.045 4.25319 20.7788V15H21.7438Z" fill="#FF5F00"/>
</svg>
