<svg width="18" height="19" viewBox="0 0 18 19" fill="none" xmlns="http://www.w3.org/2000/svg">
<mask id="mask0_523_2579" style="mask-type:alpha" maskUnits="userSpaceOnUse" x="0" y="0" width="18" height="19">
<rect y="0.101562" width="18" height="18" fill="#FBE1C8"/>
</mask>
<g mask="url(#mask0_523_2579)">
<path d="M1.5 18.0269V15.0334H16.5V18.0269H1.5ZM4.5 12.0399H5.55L11.4 6.22118L10.3313 5.15474L4.5 10.9921V12.0399ZM3 13.5366V10.356L11.4 1.99282C11.5375 1.85562 11.6969 1.7496 11.8781 1.67476C12.0594 1.59992 12.25 1.5625 12.45 1.5625C12.65 1.5625 12.8438 1.59992 13.0312 1.67476C13.2188 1.7496 13.3875 1.86185 13.5375 2.01153L14.5688 3.05927C14.7188 3.19647 14.8281 3.35862 14.8969 3.54571C14.9656 3.73281 15 3.92614 15 4.12571C15 4.31281 14.9656 4.49678 14.8969 4.67764C14.8281 4.8585 14.7188 5.02377 14.5688 5.17345L6.1875 13.5366H3Z" fill="#FBE1C8"/>
</g>
</svg>
