<svg width="80" height="80" viewBox="0 0 80 80" fill="none" xmlns="http://www.w3.org/2000/svg">
<path d="M31.0281 26.8906H29.4949L20.8984 45.3362H25.227L26.9987 41.1058H33.5243L35.2959 45.3362H39.6245L31.0281 26.8906ZM28.4571 37.6467L30.2661 33.3274L32.0752 37.6467H28.4571Z" fill="#FF560C"/>
<path d="M9.8331 31.4623V34.5989H14.9003C16.5504 34.5989 17.4198 33.5378 17.4198 32.3785C17.4198 31.3174 16.5924 30.3311 14.8629 30.3311H6V26.8906H15.0592C19.1494 26.8906 21.3137 29.2886 21.3137 31.7287C21.3137 33.6359 19.916 35.0897 18.2472 35.6226C20.1965 36.0947 22.0803 37.67 22.0803 40.0681C22.0803 42.8213 19.8786 45.3409 15.4705 45.3409H6V31.4436L9.8331 31.4623ZM9.8331 41.8958H15.4518C17.2796 41.8958 18.1677 40.9889 18.1677 39.7923C18.1677 38.6891 17.3217 37.6467 15.4145 37.6467H9.83776V41.8958H9.8331Z" fill="#FF560C"/>
<path d="M21.6082 50.4375H6V54.0182H21.6082V50.4375Z" fill="#FF560C"/>
<path d="M19.8786 58.3281H6V61.9088H19.8786V58.3281Z" fill="#FF560C"/>
<path d="M10.2258 68.8817H6V54.9844L10.2258 55.0077V68.8817Z" fill="#FF560C"/>
<path d="M43.9645 10.9039C48.1715 15.1109 53.4444 20.482 54.7205 21.7581H56.0995V3.3125H52.3412V14.3069C51.6354 13.6011 42.9408 4.82704 41.4262 3.3125H40.1875V21.7581H43.9645V10.9039Z" fill="#FF560C"/>
<path d="M52.3412 26.8203V37.8147C51.6354 37.1089 42.9408 28.3349 41.4262 26.8203H40.1875V45.2659H43.9645V34.4117C48.1715 38.6188 53.4444 43.9898 54.7205 45.2659H56.0995V26.8203H52.3412Z" fill="#FF560C"/>
<path d="M66.7717 6.81543C68.7397 6.81543 70.8432 7.31561 72.1614 8.83014V4.73061C70.5113 3.82375 68.721 3.375 66.7717 3.375C61.2044 3.375 57.1562 7.44649 57.1562 12.5791C57.1562 18.0249 61.354 21.8206 67.2158 21.8206C69.1838 21.8206 70.8899 21.6196 72.6242 20.8015V11.3824H64.2194V14.7621H69.0762V18.511C68.6041 18.5905 68.0198 18.6466 67.571 18.6466C64.1119 18.6466 61.0314 16.3514 61.0314 12.5744C61.0314 9.58274 63.35 6.81076 66.7764 6.81076L66.7717 6.81543Z" fill="#FF560C"/>
<path d="M66.7717 30.2686C68.7397 30.2686 70.8432 30.7687 72.1614 32.2833V28.1837C70.5113 27.2769 68.721 26.8281 66.7717 26.8281C61.2044 26.8281 57.1562 30.8996 57.1562 36.0322C57.1562 41.478 61.354 45.2737 67.2158 45.2737C69.1838 45.2737 70.8899 45.0727 72.6242 44.2547V34.8355H64.2194V38.2152H69.0762V41.9642C68.6041 42.0436 68.0198 42.0997 67.571 42.0997C64.1119 42.0997 61.0314 39.8045 61.0314 36.0275C61.0314 33.0359 63.35 30.2639 66.7764 30.2639L66.7717 30.2686Z" fill="#FF560C"/>
<path d="M29.4754 3C26.7549 3 24.2914 4.08448 22.5198 5.83742C23.4266 6.88919 24.0951 8.10923 24.4971 9.43679C25.5021 7.62776 27.3532 6.41706 29.4754 6.41706C32.6634 6.41706 35.2484 9.161 35.2484 12.5453C35.2484 15.9297 32.6775 18.6596 29.4988 18.6736C26.3108 18.6736 23.9315 15.7053 23.7866 12.5453C23.5295 6.91256 19.3271 3.32254 13.5073 3.32254H6.02344V6.76298H13.526C17.2423 6.76298 19.7665 9.1049 20.0937 12.5453C20.4536 16.3177 17.2423 18.3277 13.526 18.3277H9.8986V7.85681H6.02344V21.7681H13.5073C16.9898 21.7681 20.6032 20.3003 22.0757 18.1267C23.3892 20.3144 26.2594 22.086 29.4848 22.086C34.8885 22.086 39.2545 17.8135 39.2545 12.5453C39.2545 7.27717 34.8745 3.00468 29.4707 3.00468L29.4754 3Z" fill="#FF560C"/>
<path d="M61.4142 54.9718V65.4427H64.2703C67.9866 65.4427 70.436 63.1241 70.436 59.6603C70.436 56.1965 67.9866 53.8779 64.2703 53.8779H57.5391V50.4375H64.2516C70.0714 50.4375 73.998 54.2519 73.998 59.6603C73.998 65.0687 70.3098 68.8831 64.2516 68.8831H57.5391V54.9671H61.4142V54.9718Z" fill="#FF560C"/>
<path d="M46.9877 50.0703C44.2765 50.0703 41.7195 51.2343 39.9666 53.0199C40.8407 54.1231 41.5045 55.4039 41.8925 56.7923C42.8555 54.8897 44.8328 53.5388 46.9877 53.5388C50.1243 53.5388 52.6672 56.2781 52.6672 59.653C52.6672 63.028 50.1243 65.7673 46.9877 65.7673C44.8328 65.7673 42.9583 64.4771 41.9953 62.5699C41.5559 61.7005 41.4064 60.4571 41.3082 59.653C41.2474 59.1482 41.1493 58.5732 40.9483 57.6477C40.8174 57.04 40.6257 56.5211 40.4247 56.1004C38.999 52.5665 35.5165 50.0703 31.445 50.0703C26.102 50.0703 21.7734 54.3615 21.7734 59.653C21.7734 64.9446 26.102 69.2358 31.445 69.2358C34.633 69.2358 37.4611 67.7072 39.2234 65.3466C39.2234 65.3559 39.2327 65.3653 39.2374 65.3746C39.4945 65.7159 39.775 66.0384 40.0741 66.3423C41.8317 68.1279 44.2812 69.2358 46.9924 69.2358C52.3353 69.2358 56.6639 64.9446 56.6639 59.653C56.6639 54.3615 52.3353 50.0703 46.9924 50.0703H46.9877ZM31.5245 65.772C28.3411 65.772 25.7561 63.0327 25.7561 59.6577C25.7561 56.2827 28.3364 53.5435 31.5245 53.5435C34.7125 53.5435 37.2928 56.2827 37.2928 59.6577C37.2928 63.0327 34.7125 65.772 31.5245 65.772Z" fill="#FF560C"/>
<path d="M21.9328 75.6902C22.8163 75.8819 23.223 76.2044 23.223 76.8168C23.223 77.504 22.6574 77.9434 21.8674 77.9434C21.241 77.9434 20.7221 77.733 20.25 77.3076L20.5258 76.9804C20.9372 77.3544 21.3345 77.5413 21.8861 77.5413C22.4377 77.5413 22.7696 77.2656 22.7696 76.8635C22.7696 76.4896 22.5732 76.2792 21.7412 76.1063C20.8296 75.9099 20.4089 75.6155 20.4089 74.9563C20.4089 74.2972 20.9559 73.8672 21.7131 73.8672C22.2928 73.8672 22.7041 74.0308 23.1061 74.3533L22.8444 74.6992C22.4751 74.4001 22.1058 74.2692 21.6991 74.2692C21.1849 74.2692 20.853 74.5543 20.853 74.9143C20.853 75.2742 21.0587 75.5033 21.9281 75.6902H21.9328Z" fill="#FF560C"/>
<path d="M25.4331 73.9219V77.8859H24.9844V73.9219H25.4331Z" fill="#FF560C"/>
<path d="M30.3231 73.9219H30.7579V77.8859H30.4026L27.841 74.6371V77.8859H27.4062V73.9219H27.827L30.3231 77.1005V73.9219Z" fill="#FF560C"/>
<path d="M34.5023 77.9589C33.357 77.9589 32.5156 77.0567 32.5156 75.9162C32.5156 74.7756 33.3524 73.8594 34.521 73.8594C35.2409 73.8594 35.6709 74.1118 36.0683 74.4858L35.7644 74.813C35.4325 74.4951 35.0586 74.2707 34.5163 74.2707C33.6375 74.2707 32.9831 74.9766 32.9831 75.9021C32.9831 76.8277 33.6469 77.5429 34.5163 77.5429C35.0586 77.5429 35.4185 77.3325 35.7971 76.9726L36.0916 77.2624C35.6803 77.6831 35.2268 77.9589 34.507 77.9589H34.5023Z" fill="#FF560C"/>
<path d="M40.5373 74.3364H38.1206V75.692H40.2849V76.0987H38.1206V77.487H40.5654V77.8937H37.6719V73.9297H40.5373V74.3364Z" fill="#FF560C"/>
<path d="M45.3583 73.8984H45.6855V77.8905H45.2461V74.3612L44.4981 74.5949L44.3906 74.2303L45.3583 73.8984Z" fill="#FF560C"/>
<path d="M48.7323 77.9589C48.2181 77.9589 47.8441 77.7486 47.5075 77.4728L47.7693 77.1268C48.0919 77.412 48.391 77.5522 48.7416 77.5522C49.4568 77.5522 49.9383 76.8277 49.9196 75.8133C49.7046 76.1592 49.3493 76.449 48.7977 76.449C47.9797 76.449 47.4141 75.9349 47.4141 75.215C47.4141 74.4577 47.9984 73.8594 48.8398 73.8594C49.2932 73.8594 49.6251 74.0136 49.8822 74.2661C50.1954 74.5792 50.373 75.0093 50.373 75.8086C50.373 77.0708 49.7046 77.9589 48.7229 77.9589H48.7323ZM48.8304 74.2567C48.2368 74.2567 47.8768 74.6914 47.8768 75.1916C47.8768 75.6918 48.2742 76.0657 48.8491 76.0657C49.4568 76.0657 49.8355 75.6217 49.8355 75.1636C49.8355 74.654 49.4241 74.2567 48.8258 74.2567H48.8304Z" fill="#FF560C"/>
<path d="M51.7969 73.9219H54.4847V74.2538L52.685 77.8859H52.1849L53.9752 74.3286H51.7969V73.9219Z" fill="#FF560C"/>
<path d="M57.1776 77.9589C56.6634 77.9589 56.2894 77.7486 55.9529 77.4728L56.2146 77.1268C56.5372 77.412 56.8363 77.5522 57.1869 77.5522C57.9021 77.5522 58.3836 76.8277 58.3649 75.8133C58.1499 76.1592 57.7946 76.449 57.243 76.449C56.425 76.449 55.8594 75.9349 55.8594 75.215C55.8594 74.4577 56.4437 73.8594 57.2851 73.8594C57.7385 73.8594 58.0704 74.0136 58.3275 74.2661C58.6407 74.5792 58.8183 75.0093 58.8183 75.8086C58.8183 77.0708 58.1499 77.9589 57.1682 77.9589H57.1776ZM57.2757 74.2567C56.6821 74.2567 56.3222 74.6914 56.3222 75.1916C56.3222 75.6918 56.7195 76.0657 57.2945 76.0657C57.9021 76.0657 58.2808 75.6217 58.2808 75.1636C58.2808 74.654 57.8694 74.2567 57.2711 74.2567H57.2757Z" fill="#FF560C"/>
</svg>
