<svg width="67" height="70" viewBox="0 0 67 70" fill="none" xmlns="http://www.w3.org/2000/svg">
<path d="M64.2421 47.4302H41.9307V40.8893H62.8737C63.6303 40.8893 64.2421 40.338 64.2421 39.6606V36.7031H35.7188V50.3877C35.7188 51.0651 36.3306 51.6164 37.0872 51.6164H62.8737C63.6303 51.6164 64.2421 51.0651 64.2421 50.3877V47.4302Z" fill="#F3EFE7"/>
<path d="M34.4375 55.2969V58.4692C34.4375 59.1467 35.0493 59.698 35.806 59.698H64.1472C64.9039 59.698 65.5157 59.1467 65.5157 58.4692V55.2969H34.4375Z" fill="#F3EFE7"/>
<path d="M30.5183 36.7031H1.88281V39.6606C1.88281 40.338 2.49466 40.8893 3.2513 40.8893H29.1498C29.9064 40.8893 30.5183 40.338 30.5183 39.6606V36.7031Z" fill="#F3EFE7"/>
<path d="M30.8177 47.4259H25.3111L25.6193 42.0156H19.4168L19.1085 47.4259H13.3637L13.0227 42.0156H6.7968L7.14243 47.4259H1.59375V50.3833C1.59375 51.0608 2.2056 51.6121 2.96224 51.6121H29.4492C30.2059 51.6121 30.8177 51.0608 30.8177 50.3833V47.4259Z" fill="#F3EFE7"/>
<path d="M2.03255 59.7027H13.0972V65.4493H16.5721C18.0854 65.4493 19.3091 64.3467 19.3091 62.9871V59.698H30.3738C31.1304 59.698 31.7423 59.1467 31.7423 58.4692V55.2969H0.664062V58.4692C0.664062 59.1467 1.27591 59.698 2.03255 59.698V59.7027Z" fill="#F3EFE7"/>
<path d="M62.4937 5.61754V0.0390625H56.5807V13.761L56.2912 13.6395C55.2496 13.1209 54.11 12.7378 52.9097 12.5042V0.0390625H46.8752V4.15517H40.7707V0.0390625H34.8438V14.6066C34.8438 15.0411 34.9418 15.3448 35.124 15.4943C35.3248 15.6579 35.6985 15.7513 36.1468 15.7513H50.5837V15.756C54.479 15.756 57.6363 18.7648 57.6363 22.5492C57.6363 26.3336 54.479 29.3704 50.5837 29.3985C46.0298 29.4312 43.4984 26.2635 43.7786 22.5492C43.7786 20.7738 44.624 19.1526 45.7683 17.9378H39.7806C38.7998 19.5123 38.2346 21.3251 38.2346 23.2547C38.2346 29.3331 43.3956 34.2621 50.2521 34.2621C57.1085 34.2621 62.6665 29.3331 62.6665 23.2547C62.6665 22.8342 62.6385 22.423 62.5871 22.0166C62.5778 15.6906 62.5031 9.95791 62.5031 9.95791H65.2167C65.9733 9.95791 66.5852 9.41594 66.5852 8.74316V5.62221H62.5031L62.4937 5.61754ZM46.8659 11.9062H40.7614V8.03768H46.8659V11.9062Z" fill="#F3EFE7"/>
<path d="M29.56 0V2.59301C29.56 3.26112 28.9482 3.80775 28.1915 3.80775H8.53294L8.66838 6.79789H29.8496L29.7141 9.3909C29.7141 10.059 29.1023 10.6056 28.3456 10.6056H19.0511V13.493H31.517V16.0907C31.517 16.7588 30.9051 17.3054 30.1485 17.3054H26.0197C27.2761 19.0247 28.0047 21.0711 28.0047 23.2717C28.0047 29.3501 22.4467 34.2791 15.5902 34.2791C8.73377 34.2791 3.57275 29.3501 3.57275 23.2717C3.57275 22.0523 3.95107 20.6133 4.36208 19.5153H9.72394C9.33161 20.3656 8.81317 21.5757 8.81317 22.5709C8.81317 26.3553 11.2606 29.4809 15.9172 29.4201C19.8124 29.3688 22.9698 26.3553 22.9698 22.5709C22.9698 20.4497 21.9749 18.5622 20.415 17.3101H1.72786C0.971224 17.3101 0.359375 16.7681 0.359375 16.0953V13.4977H12.8439V10.6103H3.75958C3.2318 10.6103 2.83947 10.5169 2.61528 10.3393C2.41911 10.1805 2.31169 9.86745 2.31169 9.43295V0H29.56Z" fill="#F3EFE7"/>
<path d="M27.5648 67.3924C28.4478 67.584 28.8543 67.9064 28.8543 68.5184C28.8543 69.2052 28.2889 69.6444 27.4994 69.6444C26.8733 69.6444 26.3547 69.4341 25.8828 69.009L26.1585 68.6819C26.5696 69.0557 26.9667 69.2426 27.518 69.2426C28.0694 69.2426 28.4011 68.9669 28.4011 68.5651C28.4011 68.1913 28.2048 67.9811 27.3685 67.8082C26.4575 67.612 26.037 67.3177 26.037 66.6589C26.037 66.0001 26.5883 65.5703 27.3405 65.5703C27.9198 65.5703 28.331 65.7338 28.7328 66.0562L28.4712 66.4019C28.1021 66.1029 27.7376 65.9721 27.3265 65.9721C26.8126 65.9721 26.4808 66.2571 26.4808 66.6169C26.4808 66.9766 26.6864 67.2055 27.5554 67.3924H27.5648Z" fill="#F3EFE7"/>
<path d="M31.0579 65.625V69.5869H30.6094V65.625H31.0579Z" fill="#F3EFE7"/>
<path d="M35.9301 65.625H36.3645V69.5869H36.0095L33.45 66.3398V69.5869H33.0156V65.625H33.436L35.9301 68.802V65.625Z" fill="#F3EFE7"/>
<path d="M40.1178 69.6599C38.9735 69.6599 38.1328 68.7582 38.1328 67.6182C38.1328 66.4782 38.9689 65.5625 40.1365 65.5625C40.8558 65.5625 41.2855 65.8148 41.6825 66.1886L41.3789 66.5156C41.0473 66.1979 40.6736 65.9736 40.1318 65.9736C39.2538 65.9736 38.5999 66.6791 38.5999 67.6042C38.5999 68.5293 39.2631 69.2441 40.1318 69.2441C40.6736 69.2441 41.0333 69.0339 41.4116 68.6741L41.7058 68.9638C41.2948 69.3843 40.8418 69.6599 40.1225 69.6599H40.1178Z" fill="#F3EFE7"/>
<path d="M46.1609 66.0315H43.7454V67.3864H45.9086V67.7928H43.7454V69.1805H46.1889V69.5869H43.2969V65.625H46.1609V66.0315Z" fill="#F3EFE7"/>
<path d="M50.964 65.6016H51.291V69.5915H50.8472V66.0641L50.0996 66.2977L49.9922 65.9333L50.9593 65.6016H50.964Z" fill="#F3EFE7"/>
<path d="M54.3332 69.6599C53.8192 69.6599 53.4455 69.4497 53.1091 69.174L53.3707 68.8283C53.6931 69.1133 53.9921 69.2534 54.3425 69.2534C55.0573 69.2534 55.5386 68.5293 55.5199 67.5154C55.3049 67.8612 54.9499 68.1508 54.3986 68.1508C53.5856 68.1508 53.0156 67.6369 53.0156 66.9174C53.0156 66.1605 53.5996 65.5625 54.4406 65.5625C54.8938 65.5625 55.2255 65.7167 55.4825 65.969C55.7955 66.282 55.9731 66.7118 55.9731 67.5061C55.9731 68.7676 55.3049 69.6552 54.3238 69.6552L54.3332 69.6599ZM54.4313 65.955C53.8379 65.955 53.4782 66.3895 53.4782 66.8894C53.4782 67.3893 53.8753 67.7631 54.45 67.7631C55.0573 67.7631 55.4358 67.3192 55.4358 66.8613C55.4358 66.3521 55.0246 65.955 54.4266 65.955H54.4313Z" fill="#F3EFE7"/>
<path d="M57.4062 65.625H60.0927V65.9567L58.2939 69.5869H57.794L59.5834 66.0315H57.4062V65.625Z" fill="#F3EFE7"/>
<path d="M62.7863 69.6599C62.2723 69.6599 61.8986 69.4497 61.5622 69.174L61.8238 68.8283C62.1462 69.1133 62.4452 69.2534 62.7956 69.2534C63.5105 69.2534 63.9917 68.5293 63.973 67.5154C63.7581 67.8612 63.403 68.1508 62.8517 68.1508C62.0387 68.1508 61.4688 67.6369 61.4688 66.9174C61.4688 66.1605 62.0528 65.5625 62.8937 65.5625C63.3469 65.5625 63.6786 65.7167 63.9356 65.969C64.2486 66.282 64.4262 66.7118 64.4262 67.5061C64.4262 68.7676 63.7581 69.6552 62.7769 69.6552L62.7863 69.6599ZM62.8797 65.955C62.2864 65.955 61.9266 66.3895 61.9266 66.8894C61.9266 67.3893 62.3237 67.7631 62.8984 67.7631C63.5058 67.7631 63.8842 67.3192 63.8842 66.8613C63.8842 66.3521 63.4731 65.955 62.875 65.955H62.8797Z" fill="#F3EFE7"/>
</svg>
