<svg width="56" height="56" viewBox="0 0 56 56" fill="none" xmlns="http://www.w3.org/2000/svg">
<path d="M50.1333 37.4566H33.9691V32.7193H49.1419C49.6901 32.7193 50.1333 32.3201 50.1333 31.8294V29.6875H29.4688V39.5985C29.4688 40.0892 29.912 40.4884 30.4602 40.4884H49.1419C49.6901 40.4884 50.1333 40.0892 50.1333 39.5985V37.4566Z" fill="#FF5F00"/>
<path d="M28.5469 43.1562V45.4538C28.5469 45.9445 28.9901 46.3437 29.5383 46.3437H50.0709C50.6191 46.3437 51.0624 45.9445 51.0624 45.4538V43.1562H28.5469Z" fill="#FF5F00"/>
<path d="M25.6989 29.6875H4.95312V31.8294C4.95312 32.3201 5.3964 32.7193 5.94457 32.7193H24.7075C25.2557 32.7193 25.6989 32.3201 25.6989 31.8294V29.6875Z" fill="#FF5F00"/>
<path d="M25.9222 37.4574H21.9327L22.156 33.5391H17.6624L17.4391 37.4574H13.2771L13.03 33.5391H8.5195L8.7699 37.4574H4.75V39.5994C4.75 40.09 5.19327 40.4893 5.74144 40.4893H24.9307C25.4789 40.4893 25.9222 40.09 25.9222 39.5994V37.4574Z" fill="#FF5F00"/>
<path d="M5.06957 46.3471H13.0857V50.5091H15.6032C16.6995 50.5091 17.5861 49.7106 17.5861 48.7259V46.3437H25.6022C26.1504 46.3437 26.5936 45.9445 26.5936 45.4538V43.1562H4.07812V45.4538C4.07812 45.9445 4.5214 46.3437 5.06957 46.3437V46.3471Z" fill="#FF5F00"/>
<path d="M48.8756 7.1652V3.125H44.5917V13.0631L44.382 12.9751C43.6274 12.5995 42.8017 12.322 41.9321 12.1529V3.125H37.5603V6.10609H33.1377V3.125H28.8438V13.6755C28.8438 13.9902 28.9148 14.2102 29.0468 14.3185C29.1923 14.4369 29.463 14.5046 29.7878 14.5046H40.247V14.508C43.0691 14.508 45.3565 16.6871 45.3565 19.4279C45.3565 22.1688 43.0691 24.3682 40.247 24.3885C36.9478 24.4122 35.1138 22.118 35.3169 19.4279C35.3169 18.1421 35.9293 16.9679 36.7584 16.0882H32.4204C31.7098 17.2285 31.3004 18.5414 31.3004 19.9389C31.3004 24.3411 35.0394 27.911 40.0068 27.911C44.9741 27.911 49.0008 24.3411 49.0008 19.9389C49.0008 19.6343 48.9805 19.3366 48.9433 19.0422C48.9365 14.4606 48.8823 10.3087 48.8823 10.3087H50.8483C51.3965 10.3087 51.8397 9.9162 51.8397 9.42893V7.16859H48.8823L48.8756 7.1652ZM37.5535 11.7197H33.131V8.91799H37.5535V11.7197Z" fill="#FF5F00"/>
<path d="M25.0146 3.10156V4.97955C25.0146 5.46342 24.5713 5.85932 24.0232 5.85932H9.78095L9.87908 8.02493H25.2244L25.1263 9.90291C25.1263 10.3868 24.683 10.7827 24.1348 10.7827H17.4012V12.8738H26.4324V14.7552C26.4324 15.2391 25.9891 15.635 25.441 15.635H22.4497C23.36 16.8802 23.8878 18.3623 23.8878 19.956C23.8878 24.3583 19.8612 27.9282 14.8938 27.9282C9.92645 27.9282 6.1874 24.3583 6.1874 19.956C6.1874 19.0729 6.46148 18.0307 6.75925 17.2355H10.6438C10.3596 17.8513 9.98397 18.7277 9.98397 19.4485C9.98397 22.1893 11.7571 24.4531 15.1307 24.4091C17.9527 24.3718 20.2401 22.1893 20.2401 19.4485C20.2401 17.9123 19.5194 16.5452 18.3892 15.6384H4.85082C4.30265 15.6384 3.85938 15.2459 3.85938 14.7586V12.8772H12.9042V10.7861H6.32275C5.94038 10.7861 5.65615 10.7184 5.49373 10.5898C5.35161 10.4748 5.27378 10.2481 5.27378 9.93336V3.10156H25.0146Z" fill="#FF5F00"/>
<path d="M23.5697 51.9056C24.2092 52.0443 24.5036 52.2778 24.5036 52.7211C24.5036 53.2185 24.0942 53.5366 23.5223 53.5366C23.0689 53.5366 22.6933 53.3843 22.3516 53.0764L22.5512 52.8395C22.849 53.1102 23.1366 53.2456 23.5359 53.2456C23.9352 53.2456 24.1754 53.0459 24.1754 52.7549C24.1754 52.4842 24.0333 52.332 23.4276 52.2068C22.7678 52.0646 22.4632 51.8515 22.4632 51.3743C22.4632 50.8972 22.8625 50.5859 23.4073 50.5859C23.8269 50.5859 24.1246 50.7044 24.4157 50.9378L24.2262 51.1882C23.9588 50.9717 23.6949 50.8769 23.3971 50.8769C23.0249 50.8769 22.7847 51.0833 22.7847 51.3439C22.7847 51.6044 22.9336 51.7702 23.5629 51.9056H23.5697Z" fill="#FF5F00"/>
<path d="M26.1061 50.625V53.4944H25.7812V50.625H26.1061Z" fill="#FF5F00"/>
<path d="M29.6349 50.625H29.9496V53.4944H29.6924L27.8381 51.1427V53.4944H27.5234V50.625H27.828L29.6349 52.926V50.625Z" fill="#FF5F00"/>
<path d="M32.6568 53.5457C31.8278 53.5457 31.2188 52.8926 31.2188 52.067C31.2188 51.2413 31.8244 50.5781 32.6704 50.5781C33.1915 50.5781 33.5028 50.7608 33.7904 51.0315L33.5705 51.2684C33.3302 51.0383 33.0595 50.8759 32.667 50.8759C32.0309 50.8759 31.5571 51.3868 31.5571 52.0568C31.5571 52.7268 32.0376 53.2445 32.667 53.2445C33.0595 53.2445 33.3201 53.0923 33.5941 52.8317L33.8073 53.0415C33.5096 53.346 33.1813 53.5457 32.6602 53.5457H32.6568Z" fill="#FF5F00"/>
<path d="M37.0352 50.9194H35.2858V51.9007H36.8525V52.1951H35.2858V53.2H37.0555V53.4944H34.9609V50.625H37.0352V50.9194Z" fill="#FF5F00"/>
<path d="M40.5163 50.6094H40.7532V53.4991H40.4317V50.9444L39.8903 51.1136L39.8125 50.8496L40.5129 50.6094H40.5163Z" fill="#FF5F00"/>
<path d="M42.962 53.5457C42.5898 53.5457 42.3191 53.3934 42.0755 53.1938L42.265 52.9434C42.4985 53.1498 42.715 53.2513 42.9688 53.2513C43.4865 53.2513 43.835 52.7268 43.8215 51.9925C43.6659 52.2429 43.4087 52.4527 43.0094 52.4527C42.4206 52.4527 42.0078 52.0805 42.0078 51.5594C42.0078 51.0112 42.4308 50.5781 43.0399 50.5781C43.3681 50.5781 43.6083 50.6898 43.7944 50.8725C44.0211 51.0992 44.1497 51.4105 44.1497 51.9858C44.1497 52.8994 43.6659 53.5423 42.9553 53.5423L42.962 53.5457ZM43.0331 50.8624C42.6034 50.8624 42.3428 51.177 42.3428 51.5391C42.3428 51.9012 42.6304 52.1719 43.0466 52.1719C43.4865 52.1719 43.7606 51.8504 43.7606 51.5188C43.7606 51.15 43.4628 50.8624 43.0297 50.8624H43.0331Z" fill="#FF5F00"/>
<path d="M45.1875 50.625H47.1332V50.8652L45.8304 53.4944H45.4683L46.7643 50.9194H45.1875V50.625Z" fill="#FF5F00"/>
<path d="M49.087 53.5457C48.7148 53.5457 48.4441 53.3934 48.2005 53.1938L48.39 52.9434C48.6235 53.1498 48.84 53.2513 49.0938 53.2513C49.6115 53.2513 49.96 52.7268 49.9465 51.9925C49.7909 52.2429 49.5337 52.4527 49.1344 52.4527C48.5456 52.4527 48.1328 52.0805 48.1328 51.5594C48.1328 51.0112 48.5558 50.5781 49.1649 50.5781C49.4931 50.5781 49.7333 50.6898 49.9194 50.8725C50.1461 51.0992 50.2747 51.4105 50.2747 51.9858C50.2747 52.8994 49.7908 53.5423 49.0803 53.5423L49.087 53.5457ZM49.1547 50.8624C48.725 50.8624 48.4644 51.177 48.4644 51.5391C48.4644 51.9012 48.752 52.1719 49.1682 52.1719C49.6081 52.1719 49.8822 51.8504 49.8822 51.5188C49.8822 51.15 49.5844 50.8624 49.1513 50.8624H49.1547Z" fill="#FF5F00"/>
</svg>
