<svg width="94" height="107" viewBox="0 0 94 107" fill="none" xmlns="http://www.w3.org/2000/svg">
<path d="M34.5965 33.0156H32.4771L20.5938 58.5067H26.5774L29.0264 52.6605H38.0471L40.4962 58.5067H46.4798L34.5965 33.0156ZM31.0425 47.8801L33.5433 41.911L36.044 47.8801H31.0425Z" fill="#F3EFE7"/>
<path d="M5.2987 39.3335V43.6682H12.3033C14.5843 43.6682 15.7862 42.2017 15.7862 40.5997C15.7862 39.1332 14.6425 37.7702 12.2516 37.7702H0V33.0156H12.523C18.1771 33.0156 21.1689 36.3296 21.1689 39.7017C21.1689 42.3374 19.2369 44.3465 16.93 45.0829C19.6246 45.7354 22.2287 47.9124 22.2287 51.2263C22.2287 55.0313 19.1852 58.5132 13.0917 58.5132H0V39.3077L5.2987 39.3335ZM5.2987 53.7522H13.0658C15.5924 53.7522 16.8201 52.499 16.8201 50.8452C16.8201 49.3206 15.6505 47.8801 13.0141 47.8801H5.30515V53.7522H5.2987Z" fill="#F3EFE7"/>
<path d="M21.576 65.5547H0V70.503H21.576V65.5547Z" fill="#F3EFE7"/>
<path d="M19.1852 76.4688H0V81.4171H19.1852V76.4688Z" fill="#F3EFE7"/>
<path d="M5.84187 91.0493H0V71.8438L5.84187 71.8761V91.0493Z" fill="#F3EFE7"/>
<path d="M52.479 10.9285C58.2946 16.7425 65.5835 24.165 67.3476 25.9286H69.2539V0.4375H64.0586V15.6314C63.0828 14.6559 51.0638 2.53054 48.9702 0.4375H47.2578V25.9286H52.479V10.9285Z" fill="#F3EFE7"/>
<path d="M64.0586 32.9219V48.1158C63.0828 47.1403 51.0638 35.0149 48.9702 32.9219H47.2578V58.413H52.479V43.4129C58.2946 49.2269 65.5835 56.6494 67.3476 58.413H69.2539V32.9219H64.0586Z" fill="#F3EFE7"/>
<path d="M83.9951 5.27018C86.7155 5.27018 89.6234 5.9614 91.4456 8.05443V2.38902C89.1646 1.13578 86.6897 0.515625 83.9951 0.515625C76.2991 0.515625 70.7031 6.14228 70.7031 13.2353C70.7031 20.7612 76.5059 26.0067 84.609 26.0067C87.3294 26.0067 89.688 25.729 92.0853 24.5985V11.5816H80.467V16.2522H87.1808V21.4331C86.5281 21.5429 85.7204 21.6204 85.1001 21.6204C80.3183 21.6204 76.06 18.4486 76.06 13.2289C76.06 9.09449 79.2651 5.26372 84.0016 5.26372L83.9951 5.27018Z" fill="#F3EFE7"/>
<path d="M83.9951 37.6764C86.7155 37.6764 89.6234 38.3676 91.4456 40.4607V34.7953C89.1646 33.542 86.6897 32.9219 83.9951 32.9219C76.2991 32.9219 70.7031 38.5485 70.7031 45.6416C70.7031 53.1675 76.5059 58.413 84.609 58.413C87.3294 58.413 89.688 58.1352 92.0853 57.0047V43.9878H80.467V48.6584H87.1808V53.8393C86.5281 53.9491 85.7204 54.0267 85.1001 54.0267C80.3183 54.0267 76.06 50.8548 76.06 45.6351C76.06 41.5007 79.2651 37.67 84.0016 37.67L83.9951 37.6764Z" fill="#F3EFE7"/>
<path d="M32.4502 0C28.6894 0 25.2841 1.49872 22.835 3.92121C24.0886 5.37471 25.0127 7.06077 25.5684 8.89541C26.9577 6.39539 29.5166 4.72226 32.4502 4.72226C36.8572 4.72226 40.4306 8.51427 40.4306 13.1913C40.4306 17.8683 36.8766 21.641 32.4825 21.6603C28.0756 21.6603 24.7865 17.5583 24.5862 13.1913C24.2308 5.40701 18.4216 0.445741 10.3766 0.445741H0.03125V5.20029H10.4025C15.5396 5.20029 19.029 8.43675 19.4813 13.1913C19.9789 18.4045 15.5396 21.1823 10.4025 21.1823H5.38811V6.71193H0.03125V25.9369H10.3766C15.1907 25.9369 20.1857 23.9084 22.2212 20.9045C24.0369 23.9278 28.0045 26.3761 32.4631 26.3761C39.933 26.3761 45.9684 20.4717 45.9684 13.1913C45.9684 5.91089 39.9136 0.00646137 32.4438 0.00646137L32.4502 0Z" fill="#F3EFE7"/>
<path d="M76.6068 71.8287V86.2991H80.555C85.6922 86.2991 89.0782 83.0949 89.0782 78.3081C89.0782 73.5212 85.6922 70.3171 80.555 70.3171H71.25V65.5625H80.5292C88.5741 65.5625 94.0021 70.8338 94.0021 78.3081C94.0021 85.7823 88.9037 91.0536 80.5292 91.0536H71.25V71.8222H76.6068V71.8287Z" fill="#F3EFE7"/>
<path d="M56.652 65.0469C52.9041 65.0469 49.3695 66.6554 46.9463 69.1231C48.1547 70.6477 49.0722 72.4177 49.6086 74.3363C50.9397 71.7071 53.6731 69.8402 56.652 69.8402C60.9878 69.8402 64.5031 73.6257 64.5031 78.2899C64.5031 82.954 60.9878 86.7395 56.652 86.7395C53.6731 86.7395 51.0819 84.9566 49.7507 82.3209C49.1433 81.1193 48.9365 79.401 48.8008 78.2899C48.7168 77.5922 48.5812 76.7976 48.3033 75.5185C48.1224 74.6787 47.8574 73.9617 47.5796 73.3803C45.6087 68.4965 40.7946 65.0469 35.1664 65.0469C27.7805 65.0469 21.7969 70.9771 21.7969 78.2899C21.7969 85.6026 27.7805 91.5328 35.1664 91.5328C39.5734 91.5328 43.4828 89.4204 45.9189 86.1581C45.9189 86.171 45.9318 86.184 45.9383 86.1969C46.2937 86.6685 46.6814 87.1142 47.0949 87.5341C49.5246 90.0018 52.9106 91.5328 56.6584 91.5328C64.0443 91.5328 70.0279 85.6026 70.0279 78.2899C70.0279 70.9771 64.0443 65.0469 56.6584 65.0469H56.652ZM35.2763 86.746C30.8757 86.746 27.3024 82.9604 27.3024 78.2963C27.3024 73.6322 30.8693 69.8466 35.2763 69.8466C39.6832 69.8466 43.2501 73.6322 43.2501 78.2963C43.2501 82.9604 39.6832 86.746 35.2763 86.746Z" fill="#F3EFE7"/>
<path d="M22.0295 100.457C23.2509 100.722 23.8131 101.167 23.8131 102.014C23.8131 102.963 23.0312 103.571 21.9391 103.571C21.0731 103.571 20.3558 103.28 19.7031 102.692L20.0844 102.24C20.6531 102.757 21.2024 103.015 21.9649 103.015C22.7275 103.015 23.1863 102.634 23.1863 102.078C23.1863 101.562 22.9149 101.271 21.7646 101.032C20.5044 100.761 19.9228 100.354 19.9228 99.4427C19.9228 98.5318 20.6789 97.9375 21.7258 97.9375C22.5271 97.9375 23.0958 98.1636 23.6516 98.6093L23.2897 99.0874C22.7792 98.6739 22.2686 98.4931 21.7064 98.4931C20.9956 98.4931 20.5368 98.8871 20.5368 99.3845C20.5368 99.882 20.8211 100.199 22.0231 100.457H22.0295Z" fill="#F3EFE7"/>
<path d="M26.8706 98.0156V103.494H26.25V98.0156H26.8706Z" fill="#F3EFE7"/>
<path d="M33.6262 98.0156H34.2272V103.494H33.736L30.1947 99.004V103.494H29.5938V98.0156H30.1753L33.6262 102.408V98.0156Z" fill="#F3EFE7"/>
<path d="M39.4027 103.587C37.8195 103.587 36.6562 102.341 36.6562 100.764C36.6562 99.188 37.813 97.9219 39.4286 97.9219C40.4237 97.9219 41.0183 98.2707 41.5676 98.7875L41.1475 99.2397C40.6887 98.8004 40.1717 98.4903 39.4221 98.4903C38.2072 98.4903 37.3025 99.4658 37.3025 100.745C37.3025 102.024 38.2201 103.012 39.4221 103.012C40.1717 103.012 40.6693 102.722 41.1927 102.224L41.5999 102.625C41.0312 103.206 40.4044 103.587 39.4092 103.587H39.4027Z" fill="#F3EFE7"/>
<path d="M47.7504 98.5776H44.4094V100.451H47.4015V101.013H44.4094V102.932H47.7892V103.494H43.7891V98.0156H47.7504V98.5776Z" fill="#F3EFE7"/>
<path d="M54.4006 97.9688H54.8531V103.486H54.2455V98.6083L53.2112 98.9313L53.0625 98.4274L54.4006 97.9688Z" fill="#F3EFE7"/>
<path d="M59.0724 103.587C58.3615 103.587 57.8445 103.297 57.3792 102.915L57.7411 102.437C58.187 102.831 58.6006 103.025 59.0853 103.025C60.074 103.025 60.7396 102.024 60.7138 100.622C60.4165 101.1 59.9254 101.501 59.1628 101.501C58.0319 101.501 57.25 100.79 57.25 99.7953C57.25 98.7487 58.0578 97.9219 59.221 97.9219C59.8478 97.9219 60.3066 98.1351 60.6621 98.4839C61.095 98.9167 61.3406 99.511 61.3406 100.616C61.3406 102.36 60.4165 103.587 59.0594 103.587H59.0724ZM59.2081 98.471C58.3874 98.471 57.8898 99.0717 57.8898 99.763C57.8898 100.454 58.4391 100.971 59.2339 100.971C60.074 100.971 60.5974 100.357 60.5974 99.7242C60.5974 99.0201 60.0288 98.471 59.2016 98.471H59.2081Z" fill="#F3EFE7"/>
<path d="M63.3125 98.0156H67.0283V98.4743L64.5403 103.494H63.8489L66.3239 98.5776H63.3125V98.0156Z" fill="#F3EFE7"/>
<path d="M70.7599 103.587C70.049 103.587 69.532 103.297 69.0668 102.915L69.4286 102.437C69.8745 102.831 70.2881 103.025 70.7728 103.025C71.7615 103.025 72.4271 102.024 72.4013 100.622C72.104 101.1 71.6129 101.501 70.8503 101.501C69.7194 101.501 68.9375 100.79 68.9375 99.7953C68.9375 98.7487 69.7453 97.9219 70.9085 97.9219C71.5353 97.9219 71.9941 98.1351 72.3496 98.4839C72.7825 98.9167 73.0281 99.511 73.0281 100.616C73.0281 102.36 72.104 103.587 70.7469 103.587H70.7599ZM70.8956 98.471C70.0749 98.471 69.5773 99.0717 69.5773 99.763C69.5773 100.454 70.1266 100.971 70.9214 100.971C71.7615 100.971 72.2849 100.357 72.2849 99.7242C72.2849 99.0201 71.7163 98.471 70.8891 98.471H70.8956Z" fill="#F3EFE7"/>
</svg>
