<svg width="378" height="34" viewBox="0 0 378 34" fill="none" xmlns="http://www.w3.org/2000/svg">
<g clip-path="url(#clip0_466_2144)">
<path d="M174.955 0.4375H172.229L156.938 32.8677H164.632L167.78 25.4353H179.39L182.537 32.8677H190.232L174.955 0.4375ZM170.377 19.357L173.592 11.7609L176.807 19.357H170.377Z" fill="#F7E2CE"/>
<path d="M137.243 8.47995V13.9929H146.256C149.192 13.9929 150.736 12.1255 150.736 10.087C150.736 8.21956 149.268 6.49352 146.188 6.49352H130.422V0.4375H146.542C153.823 0.4375 157.67 4.65588 157.67 8.94122C157.67 12.2966 155.186 14.8559 152.212 15.7859C155.675 16.6191 159.033 19.3793 159.033 23.5977C159.033 28.441 155.11 32.8677 147.272 32.8677H130.422V8.44275L137.243 8.47995ZM137.243 26.8191H147.235C150.487 26.8191 152.061 25.227 152.061 23.1215C152.061 21.1872 150.555 19.3495 147.159 19.3495H137.236V26.8191H137.243Z" fill="#F7E2CE"/>
<path d="M284.749 0.632812H259.578V6.9269H284.749V0.632812Z" fill="#F7E2CE"/>
<path d="M282.497 14.5156H259.578V20.8097H282.497V14.5156Z" fill="#F7E2CE"/>
<path d="M267.092 33.073H259.578V8.64062L267.092 8.67782V33.073Z" fill="#F7E2CE"/>
<path d="M67.4893 13.7845C74.9809 21.1872 84.3549 30.6209 86.6287 32.8677H89.0757V0.4375H82.3897V19.7662C81.1323 18.5237 65.6597 3.10096 62.9717 0.4375H60.7656V32.8677H67.4817V13.7845H67.4893Z" fill="#F7E2CE"/>
<path d="M212.874 0.4375V19.7662C211.617 18.5237 196.144 3.10096 193.456 0.4375H191.25V32.8677H197.966V13.7845C205.458 21.1872 214.832 30.6209 217.106 32.8677H219.553V0.4375H212.867H212.874Z" fill="#F7E2CE"/>
<path d="M108.083 6.49352C111.584 6.49352 115.326 7.37886 117.668 10.0423V2.82568C114.731 1.23356 111.546 0.4375 108.083 0.4375C98.1818 0.4375 90.9688 7.59461 90.9688 16.6191C90.9688 26.1942 98.4378 32.8677 108.866 32.8677C112.367 32.8677 115.401 32.5106 118.488 31.0747V14.5137H103.535V20.4581H112.179V27.0498C111.335 27.1911 110.304 27.2953 109.498 27.2953C103.339 27.2953 97.8656 23.2554 97.8656 16.6191C97.8656 11.3666 101.992 6.48608 108.083 6.48608V6.49352Z" fill="#F7E2CE"/>
<path d="M238.544 6.49352C242.045 6.49352 245.787 7.37886 248.129 10.0423V2.82568C245.192 1.23356 242.007 0.4375 238.544 0.4375C228.643 0.4375 221.43 7.59461 221.43 16.6191C221.43 26.1942 228.899 32.8677 239.327 32.8677C242.828 32.8677 245.862 32.5106 248.949 31.0747V14.5137H233.996V20.4581H242.64V27.0498C241.796 27.1911 240.765 27.2953 239.959 27.2953C233.8 27.2953 228.327 23.2554 228.327 16.6191C228.327 11.3666 232.453 6.48608 238.544 6.48608V6.49352Z" fill="#F7E2CE"/>
<path d="M41.7273 0.4375C36.8859 0.4375 32.5039 2.34953 29.3491 5.42218C30.9604 7.2747 32.15 9.41737 32.8728 11.7535C34.6573 8.57667 37.9551 6.44144 41.7273 6.44144C47.4043 6.44144 52.0047 11.2624 52.0047 17.2143C52.0047 23.1662 47.4269 27.9648 41.7724 27.9872C36.1029 27.9872 31.8714 22.7719 31.6154 17.2143C31.1486 7.3119 23.6721 1.00293 13.3193 1.00293H0V7.0515H13.3494C19.9601 7.0515 24.4551 11.1732 25.0349 17.2143C25.6748 23.8432 19.9601 27.3771 13.3494 27.3771H6.88929V8.97842H0V33.4331H13.3193C19.5159 33.4331 25.9459 30.8515 28.5661 27.0349C30.9002 30.8738 36.0125 33.9911 41.7499 33.9911C51.3647 33.9911 59.135 26.4769 59.135 17.2143C59.135 7.95172 51.3346 0.4375 41.7273 0.4375Z" fill="#F7E2CE"/>
<path d="M355.608 8.6083V27.0144H360.69C367.301 27.0144 371.668 22.9374 371.668 16.8516C371.668 10.7659 367.308 6.68883 360.69 6.68883H348.711V0.632812H360.652C371.013 0.632812 377.992 7.34353 377.992 16.8516C377.992 26.3597 371.427 33.0704 360.652 33.0704H348.711V8.60086H355.608V8.6083Z" fill="#F7E2CE"/>
<path d="M329.929 0C325.103 0 320.555 2.04595 317.43 5.18556C318.989 7.12735 320.163 9.37418 320.856 11.8219C322.573 8.47396 326.089 6.1081 329.921 6.1081C335.508 6.1081 340.033 10.9217 340.033 16.8586C340.033 22.7956 335.508 27.6092 329.921 27.6092C326.089 27.6092 322.746 25.34 321.037 21.9921C320.254 20.467 319.983 18.2796 319.81 16.8586C319.704 15.9733 319.523 14.9615 319.162 13.3322C318.929 12.2683 318.582 11.3532 318.228 10.6092C315.691 4.39694 309.494 0.00743982 302.251 0.00743982C292.749 0.00743982 285.047 7.55142 285.047 16.8586C285.047 26.1659 292.749 33.7098 302.251 33.7098C307.928 33.7098 312.958 31.0166 316.09 26.8726C316.09 26.8875 316.105 26.9098 316.113 26.9247C316.572 27.5274 317.069 28.0928 317.603 28.6284C320.728 31.7681 325.088 33.7173 329.914 33.7173C339.416 33.7173 347.118 26.1733 347.118 16.8661C347.118 7.55886 339.431 0 329.929 0ZM302.417 27.6017C296.747 27.6017 292.155 22.7882 292.155 16.8512C292.155 10.9142 296.747 6.10066 302.417 6.10066C308.086 6.10066 312.679 10.9142 312.679 16.8512C312.679 22.7882 308.086 27.6017 302.417 27.6017Z" fill="#F7E2CE"/>
</g>
<defs>
<clipPath id="clip0_466_2144">
<rect width="378" height="34" fill="white"/>
</clipPath>
</defs>
</svg>
