<svg width="468" height="40" viewBox="0 0 468 40" fill="none" xmlns="http://www.w3.org/2000/svg">
<g clip-path="url(#clip0_466_2122)">
<path d="M200.727 0.515625H197.6L180.055 38.6688H188.883L192.494 29.9248H205.815L209.426 38.6688H218.254L200.727 0.515625ZM195.475 22.7738L199.163 13.8373L202.852 22.7738H195.475Z" fill="#FF5F00"/>
<path d="M157.467 9.97733V16.4631H167.808C171.177 16.4631 172.947 14.2662 172.947 11.8679C172.947 9.67099 171.263 7.64035 167.73 7.64035H149.641V0.515625H168.136C176.489 0.515625 180.904 5.47843 180.904 10.52C180.904 14.4675 178.053 17.4784 174.641 18.5725C178.614 19.5528 182.467 22.8001 182.467 27.7629C182.467 33.4609 177.966 38.6688 168.974 38.6688H149.641V9.93357L157.467 9.97733ZM157.467 31.5528H168.931C172.662 31.5528 174.468 29.6797 174.468 27.2027C174.468 24.927 172.74 22.7651 168.844 22.7651H157.459V31.5528H157.467Z" fill="#FF5F00"/>
<path d="M326.691 0.742188H297.812V8.147H326.691V0.742188Z" fill="#FF5F00"/>
<path d="M324.108 17.0781H297.812V24.4829H324.108V17.0781Z" fill="#FF5F00"/>
<path d="M306.434 38.9002H297.812V10.1562L306.434 10.2V38.9002Z" fill="#FF5F00"/>
<path d="M77.433 16.218C86.0283 24.927 96.7833 36.0255 99.3922 38.6688H102.2V0.515625H94.5287V23.2552C93.086 21.7935 75.3338 3.6491 72.2498 0.515625H69.7188V38.6688H77.4243V16.218H77.433Z" fill="#FF5F00"/>
<path d="M244.232 0.515625V23.2552C242.789 21.7935 225.037 3.6491 221.953 0.515625H219.422V38.6688H227.127V16.218C235.723 24.927 246.478 36.0255 249.087 38.6688H251.894V0.515625H244.223H244.232Z" fill="#FF5F00"/>
<path d="M124.01 7.64035C128.027 7.64035 132.321 8.68193 135.007 11.8154V3.32525C131.638 1.45217 127.984 0.515625 124.01 0.515625C112.651 0.515625 104.375 8.93576 104.375 19.5528C104.375 30.8176 112.944 38.6688 124.909 38.6688C128.926 38.6688 132.407 38.2487 135.949 36.5594V17.0758H118.793V24.0692H128.71V31.8242C127.742 31.9905 126.559 32.113 125.634 32.113C118.568 32.113 112.288 27.3603 112.288 19.5528C112.288 13.3734 117.022 7.6316 124.01 7.6316V7.64035Z" fill="#FF5F00"/>
<path d="M273.682 7.64035C277.699 7.64035 281.993 8.68193 284.679 11.8154V3.32525C281.31 1.45217 277.656 0.515625 273.682 0.515625C262.323 0.515625 254.047 8.93576 254.047 19.5528C254.047 30.8176 262.616 38.6688 274.581 38.6688C278.598 38.6688 282.079 38.2487 285.621 36.5594V17.0758H268.465V24.0692H278.382V31.8242C277.414 31.9905 276.231 32.113 275.306 32.113C268.24 32.113 261.96 27.3603 261.96 19.5528C261.96 13.3734 266.694 7.6316 273.682 7.6316V7.64035Z" fill="#FF5F00"/>
<path d="M47.8749 0.515625C42.3203 0.515625 37.2926 2.76508 33.6731 6.37996C35.5217 8.55939 36.8866 11.0802 37.7159 13.8285C39.7633 10.0911 43.547 7.57908 47.8749 7.57908C54.3883 7.57908 59.6665 13.2509 59.6665 20.253C59.6665 27.2552 54.4143 32.9007 47.9267 32.927C41.4219 32.927 36.567 26.7913 36.2733 20.253C35.7377 8.60315 27.1596 1.18083 15.2816 1.18083H0V8.2968H15.3162C22.9008 8.2968 28.058 13.1458 28.7232 20.253C29.4575 28.0517 22.9008 32.2093 15.3162 32.2093H7.90428V10.5638H0V39.334H15.2816C22.3911 39.334 29.7685 36.2968 32.7747 31.8067C35.4526 36.3231 41.3182 39.9905 47.9008 39.9905C58.9322 39.9905 67.8472 31.1502 67.8472 20.253C67.8472 9.35589 58.8977 0.515625 47.8749 0.515625Z" fill="#FF5F00"/>
<path d="M407.999 10.1251V31.7794H413.83C421.415 31.7794 426.425 26.9829 426.425 19.8231C426.425 12.6634 421.423 7.86691 413.83 7.86691H400.086V0.742188H413.787C425.673 0.742188 433.681 8.63715 433.681 19.8231C433.681 31.0091 426.148 38.9041 413.787 38.9041H400.086V10.1164H407.999V10.1251Z" fill="#FF5F00"/>
<path d="M378.541 0C373.004 0 367.786 2.407 364.201 6.10066C365.989 8.38512 367.337 11.0284 368.132 13.9081C370.101 9.96937 374.136 7.186 378.533 7.186C384.942 7.186 390.134 12.849 390.134 19.8337C390.134 26.8184 384.942 32.4814 378.533 32.4814C374.136 32.4814 370.3 29.8118 368.339 25.8731C367.441 24.0788 367.13 21.5055 366.931 19.8337C366.81 18.7921 366.603 17.6018 366.188 15.6849C365.92 14.4333 365.523 13.3567 365.117 12.4814C362.206 5.17287 355.096 0.00875274 346.786 0.00875274C335.884 0.00875274 327.047 8.88403 327.047 19.8337C327.047 30.7834 335.884 39.6586 346.786 39.6586C353.299 39.6586 359.07 36.4902 362.664 31.6149C362.664 31.6324 362.681 31.6586 362.69 31.6761C363.217 32.3851 363.787 33.0503 364.4 33.6805C367.985 37.3742 372.987 39.6674 378.524 39.6674C389.426 39.6674 398.263 30.7921 398.263 19.8425C398.263 8.89278 389.443 0 378.541 0ZM346.976 32.4726C340.471 32.4726 335.202 26.8096 335.202 19.8249C335.202 12.8403 340.471 7.17724 346.976 7.17724C353.481 7.17724 358.75 12.8403 358.75 19.8249C358.75 26.8096 353.481 32.4726 346.976 32.4726Z" fill="#FF5F00"/>
</g>
<path d="M467.894 14.4944H460.427V9.96104C460.427 8.20104 459.627 7.24104 458.294 7.24104C456.961 7.24104 456.214 8.20104 456.214 9.96104V12.4677C456.214 14.7077 456.747 15.5077 460.907 17.481L462.721 18.281C466.668 20.0944 468.001 22.6544 468.001 28.4677V29.321C468.001 35.561 464.374 39.1344 458.187 39.1344C452.054 39.1344 448.641 35.6677 448.641 29.321V25.3744H456.107V29.9077C456.107 31.6677 456.907 32.6277 458.294 32.6277C459.681 32.6277 460.481 31.6677 460.481 29.961V27.241C460.481 25.001 459.894 24.2544 456.054 22.3877L454.027 21.481C450.027 19.6144 448.747 16.9477 448.747 11.1344V10.4944C448.747 4.20104 452.161 0.734375 458.187 0.734375C464.321 0.734375 467.894 4.30771 467.894 10.4944V14.4944Z" fill="#FF5F00"/>
<path d="M446.997 0.203125L446.143 16.4165H439.477L441.983 0.203125H446.997Z" fill="#FF5F00"/>
<defs>
<clipPath id="clip0_466_2122">
<rect width="433.69" height="40" fill="white"/>
</clipPath>
</defs>
</svg>
