<svg width="30" height="30" viewBox="0 0 30 30" fill="none" xmlns="http://www.w3.org/2000/svg">
<path opacity="0.6" d="M20.0547 19.2567C20.0547 18.3327 20.5387 17.8047 21.4407 17.8047C22.3427 17.8047 22.8487 18.3547 22.8487 19.2787C22.8487 20.2027 22.3647 20.7307 21.4407 20.7307C20.5387 20.7307 20.0547 20.2027 20.0547 19.2567Z" fill="#F5520A"/>
<path opacity="0.6" d="M9 8.982C9 6.254 10.584 5 12.872 5C15.226 5 16.854 6.298 16.854 8.982V16.836C16.854 19.168 15.644 20.444 13.818 20.774V21.302C13.818 21.654 13.884 21.786 14.258 21.786H15.996V23.722H14.368C12.784 23.722 11.992 23.216 11.992 21.61V20.774C10.188 20.488 9 19.212 9 16.836V8.982ZM11.64 8.806V17.034C11.64 18.156 12.256 18.552 12.916 18.552C13.576 18.552 14.214 18.156 14.214 17.034V8.806C14.214 7.684 13.576 7.31 12.916 7.31C12.256 7.31 11.64 7.684 11.64 8.806Z" fill="#F5520A"/>
</svg>
