<svg width="30" height="30" viewBox="0 0 30 30" fill="none" xmlns="http://www.w3.org/2000/svg">
<path d="M21.0547 19.6395C21.0547 18.7155 21.5387 18.1875 22.4407 18.1875C23.3427 18.1875 23.8487 18.7375 23.8487 19.6615C23.8487 20.5855 23.3647 21.1135 22.4407 21.1135C21.5387 21.1135 21.0547 20.5855 21.0547 19.6395Z" fill="white"/>
<path d="M10 9.36481C10 6.63681 11.584 5.38281 13.872 5.38281C16.226 5.38281 17.854 6.68081 17.854 9.36481V17.2188C17.854 19.5508 16.644 20.8268 14.818 21.1568V21.6848C14.818 22.0368 14.884 22.1688 15.258 22.1688H16.996V24.1048H15.368C13.784 24.1048 12.992 23.5988 12.992 21.9928V21.1568C11.188 20.8708 10 19.5948 10 17.2188V9.36481ZM12.64 9.18881V17.4168C12.64 18.5388 13.256 18.9348 13.916 18.9348C14.576 18.9348 15.214 18.5388 15.214 17.4168V9.18881C15.214 8.06681 14.576 7.69281 13.916 7.69281C13.256 7.69281 12.64 8.06681 12.64 9.18881Z" fill="white"/>
</svg>
